<svg xmlns="http://www.w3.org/2000/svg" xmlns:xlink="http://www.w3.org/1999/xlink" width="116.505" height="59" viewBox="0 0 116.505 59"><defs><style>.a{fill:#fff;}.b{filter:url(#a);}</style><filter id="a" x="0" y="0" width="116.505" height="59" filterUnits="userSpaceOnUse"><feOffset dy="1" input="SourceAlpha"/><feGaussianBlur stdDeviation="1.5" result="b"/><feFlood flood-opacity="0.2"/><feComposite operator="in" in2="b"/><feComposite in="SourceGraphic"/></filter></defs><g transform="translate(4.5 3.5)"><g class="b" transform="matrix(1, 0, 0, 1, -4.5, -3.5)"><path class="a" d="M6,50a6,6,0,0,1-6-6V6A6,6,0,0,1,6,0H92a6,6,0,0,1,6,6V20.187l8.906,3.9a1,1,0,0,1,0,1.832L98,29.813V44a6,6,0,0,1-6,6Z" transform="translate(112.01 53.5) rotate(180)"/></g></g></svg>