<svg xmlns="http://www.w3.org/2000/svg" width="72" height="72" viewBox="0 0 72 72"><defs><style>.a{fill:#fff;opacity:0;}.b,.d,.i{fill:#3a2d2d;}.b{opacity:0.1;}.b,.d{isolation:isolate;}.c{fill:#733ab5;}.d{opacity:0.3;}.e{fill:#e8e1a0;}.f{fill:#f9f6bd;}.g{fill:#5e30a0;}.h{opacity:0.2;}.j{fill:#f2eca7;}.k{fill:#fffcd2;}.l{fill:#938b51;}</style></defs><g transform="translate(-130 -861)"><rect class="a" width="72" height="72" transform="translate(130 861)"/><g transform="translate(137.2 868.92)"><path class="b" d="M124.431,149.335c.312-3.944,3.408-8.829,9.884-12.032a33.124,33.124,0,0,1,10.524-3.316c6.076-.67,6.561-.122,11.433-.206,5.233-.09,10.615-2.478,13.99,1.07,1.2,1.259,2.541,4.948,3.035,7.53,2.31,12.076,3.384,17.261,2.54,23.117a25.588,25.588,0,0,1-12.168,19.066c-6.307,4.176-13.4,5.085-19.563,4.687-6.552-.423-16.337-3.827-20.174-10.526C117.4,167.327,117.731,153.794,124.431,149.335Z" transform="translate(-118.522 -132.33)"/><path class="c" d="M118.022,143.948c.312-3.944,3.408-8.829,9.885-12.032A33.112,33.112,0,0,1,138.43,128.6c6.075-.67,6.561-.123,11.431-.206,5.233-.09,10.615-2.478,13.99,1.07,1.2,1.259,2.54,4.948,3.034,7.53,2.31,12.077,3.384,17.262,2.54,23.118a25.587,25.587,0,0,1-12.168,19.066c-6.306,4.176-13.4,5.085-19.563,4.687-6.552-.423-16.337-3.827-20.173-10.527C110.99,161.938,111.319,148.407,118.022,143.948Z" transform="translate(-112.804 -127.525)"/><path class="d" d="M140.744,192.817a3.3,3.3,0,0,0,1.549-2c1.469-6.778,7.36-9.792,18.815-10.691,12.213-.952,20.554,4.638,23.645,13.4,3.579,3.938,4.3,11.721,2.319,20.063-1.656,6.969-6.54,10.607-11.852,13.306-6.463,3.283-15.49,3.593-21.62,1.912-8.184-2.243-12.711-7.075-15-13.47C135.3,206.115,135.679,196.076,140.744,192.817Z" transform="translate(-133.906 -174.349)"/><path class="e" d="M134.457,187.949a3.3,3.3,0,0,0,1.549-2c1.469-6.778,7.361-9.792,18.815-10.691,12.213-.952,20.554,4.638,23.645,13.4,3.579,3.938,4.3,11.72,2.318,20.063-1.656,6.969-6.54,10.608-11.852,13.306-6.463,3.283-15.49,3.593-21.62,1.912-8.184-2.244-12.711-7.076-15-13.47C129.013,201.248,129.392,191.209,134.457,187.949Z" transform="translate(-128.298 -170.007)"/><path class="f" d="M160.894,223.581a9.24,9.24,0,0,0,3.151-4.573c1.3-5.856,5.982-6.48,14.328-6.612a23.676,23.676,0,0,1,20.586,11.344c2.407,3.923,3.838,10.092,2.212,17.326-1.36,6.043-5.481,7.7-10.046,10.089-5.554,2.907-10.872,5.308-18.741,3.418a17.436,17.436,0,0,1-13.11-11.493C156.324,235.136,156.548,226.456,160.894,223.581Z" transform="translate(-152.493 -203.217)"/><path class="g" d="M474.486,155.076c-.051.264,1.709.632,3.518,1.512,2.292,1.114,3.841,2.843,4.023,2.655a3.057,3.057,0,0,0-1.838-2.867C477.58,155.039,474.546,154.763,474.486,155.076Z" transform="translate(-435.383 -151.993)"/><g class="h" transform="translate(18.123 17.636)"><path class="i" d="M396.506,373.071c-.075.9-.905,1.193-2.515,1.188a1.659,1.659,0,0,1-1.6-1.8,1.637,1.637,0,0,1,1.574-1.677A2.522,2.522,0,0,1,396.506,373.071Z" transform="translate(-380.284 -362.121)"/><path class="i" d="M307.062,370.785a1.637,1.637,0,0,1,1.574,1.677,1.659,1.659,0,0,1-1.6,1.8c-1.609,0-2.439-.288-2.515-1.188A2.522,2.522,0,0,1,307.062,370.785Z" transform="translate(-301.914 -362.121)"/><path class="i" d="M387.976,296.2a9.29,9.29,0,0,1-4.71-3.652,1.45,1.45,0,0,1,.444-1.856,1.414,1.414,0,0,1,1.455.538,9.71,9.71,0,0,0,2.811,2.781c1.232.624,2.2.2,2.713.775a1,1,0,0,1-.335,1.634C389.848,296.739,388.567,296.407,387.976,296.2Z" transform="translate(-372.001 -290.648)"/><path class="i" d="M287.452,294.448c-1.3,1.507-2.756,1.439-4.586,1.864a8.014,8.014,0,0,1-1.2.179,1.182,1.182,0,0,1-1.223-1.178,1.414,1.414,0,0,1,1.172-1.016,9.049,9.049,0,0,0,3.6-1.228c1.141-.779,1.45-2.155,2.2-2.329.455-.105,1.21,0,1.27,1.08A3.856,3.856,0,0,1,287.452,294.448Z" transform="translate(-280.437 -290.701)"/></g><g transform="translate(17.691 17.203)"><path class="i" d="M392.506,369.071c-.075.9-.906,1.193-2.515,1.188a1.659,1.659,0,0,1-1.6-1.8,1.637,1.637,0,0,1,1.574-1.677A2.522,2.522,0,0,1,392.506,369.071Z" transform="translate(-376.284 -358.121)"/><path class="i" d="M303.063,366.785a1.637,1.637,0,0,1,1.574,1.677,1.659,1.659,0,0,1-1.6,1.8c-1.609,0-2.439-.288-2.515-1.188A2.522,2.522,0,0,1,303.063,366.785Z" transform="translate(-297.914 -358.121)"/><path class="i" d="M383.976,292.2a9.288,9.288,0,0,1-4.71-3.652,1.45,1.45,0,0,1,.444-1.856,1.414,1.414,0,0,1,1.455.538,9.707,9.707,0,0,0,2.811,2.781c1.232.624,2.2.2,2.713.775a1,1,0,0,1-.335,1.634C385.848,292.739,384.567,292.407,383.976,292.2Z" transform="translate(-368.001 -286.648)"/><path class="i" d="M283.452,290.448c-1.3,1.507-2.756,1.439-4.586,1.864a8.035,8.035,0,0,1-1.2.179,1.182,1.182,0,0,1-1.223-1.179,1.414,1.414,0,0,1,1.172-1.016,9.047,9.047,0,0,0,3.6-1.228c1.141-.779,1.45-2.155,2.2-2.329.455-.105,1.21,0,1.27,1.08A3.856,3.856,0,0,1,283.452,290.448Z" transform="translate(-276.437 -286.701)"/></g><path class="j" d="M341.876,487.48c.322-.365,3.608-.385,3.885,0s-1.249,1.275-1.943,1.127S341.275,488.162,341.876,487.48Z" transform="translate(-317.005 -448.314)"/><path class="j" d="M433.019,388.545c.461-1.075,5.168-1.135,5.565,0s-.957,3.366-2.783,3.317C434.755,391.835,432.158,390.553,433.019,388.545Z" transform="translate(-398.247 -359.586)"/><path class="j" d="M229.882,383.156c.461-1.075,5.168-1.135,5.565,0s-.957,3.366-2.783,3.317C231.618,386.446,229.021,385.164,229.882,383.156Z" transform="translate(-217.071 -354.78)"/><path class="k" d="M453.548,393.151c.206-.365,2.312-.386,2.49,0s-.428,1.143-1.245,1.126C454.324,394.268,453.162,393.833,453.548,393.151Z" transform="translate(-416.64 -364.183)"/><path class="k" d="M253.773,388.76c.206-.365,2.312-.385,2.49,0s-.777,1.115-1.245,1.127C254.325,389.9,253.388,389.442,253.773,388.76Z" transform="translate(-238.452 -360.267)"/><path class="l" d="M322.445,436.983c-.005.831.983,1.389,1.911.6s4.65-.693,5.876.105,1.759-.745.937-1.807-1.973-1.649-4.375-1.662S322.452,435.786,322.445,436.983Z" transform="translate(-299.78 -401.066)"/></g></g></svg>