<svg xmlns="http://www.w3.org/2000/svg" width="78" height="78" viewBox="0 0 78 78"><defs><style>.a{fill:#fff;opacity:0;}.b{fill:#c782eb;}.c{fill:#a143d1;}.d{fill:#770fbe;}</style></defs><g transform="translate(-29.974 -233.974)"><rect class="a" width="78" height="78" transform="translate(29.974 233.974)"/><g transform="translate(56.954 269.394)"><g transform="translate(0)"><path class="b" d="M560.663,1481.1c2,.138,2.424-.528,3.569-.592a3.707,3.707,0,0,1,2.93,1.09,8.94,8.94,0,0,1,1.411,3.5c1.074,5.617,1.574,8.028,1.181,10.75a13.14,13.14,0,0,1-5.679,9.52,16.537,16.537,0,0,1-9.671,2.418c-3.047-.2-8.437,1.1-10.221-2.019-2.92-5.1-.839-14.278,1.308-17.18A17.708,17.708,0,0,1,560.663,1481.1Z" transform="translate(-542.743 -1480.497)"/><path class="c" d="M582.853,1493.691a8.934,8.934,0,0,1,1.411,3.5c1.074,5.617,1.574,8.028,1.181,10.75-.209,2.032-2.215,6.06-2.215,6.06a21.688,21.688,0,0,1-3.464,3.46,16.538,16.538,0,0,1-9.671,2.417c-3.047-.2-8.437,1.1-10.221-2.018-.628-1.1,11.247-.589,16.674-6.037C582.746,1505.62,582.634,1493.46,582.853,1493.691Z" transform="translate(-558.433 -1493.138)"/><path class="d" d="M610.67,1583.233c.1.115.922-.521,2-1,1.36-.605,2.728-.673,2.708-.811a1.885,1.885,0,0,0-2-.206A5.708,5.708,0,0,0,610.67,1583.233Z" transform="translate(-606.047 -1573.21)"/><path class="d" d="M750.336,1543.933c-.04.146.984.409,2.018.959,1.31.7,2.162,1.71,2.277,1.611a1.689,1.689,0,0,0-.983-1.658A5.982,5.982,0,0,0,750.336,1543.933Z" transform="translate(-733.437 -1539.204)"/><path class="d" d="M734.366,1513.3a14.771,14.771,0,0,0,2.143.675c1.4.511,2.4,1.4,2.5,1.287a1.723,1.723,0,0,0-1.223-1.507A6.038,6.038,0,0,0,734.366,1513.3Z" transform="translate(-718.872 -1511.051)"/><path class="d" d="M792.111,1646.483c-.1.117.715.759,1.415,1.666.886,1.149,1.216,2.406,1.363,2.36a1.631,1.631,0,0,0-.171-1.893C793.733,1647.275,792.229,1646.345,792.111,1646.483Z" transform="translate(-771.535 -1633.215)"/></g></g></g></svg>