<svg xmlns="http://www.w3.org/2000/svg" width="30" height="30" viewBox="0 0 30 30"><defs><style>.a{fill:#fff;opacity:0;}.b{fill:none;stroke:#000;stroke-linecap:square;}</style></defs><g transform="translate(-301 -374)"><rect class="a" width="30" height="30" transform="translate(301 374)"/><g transform="translate(-1548.508 -206.083) rotate(-45)"><path class="b" d="M894.715,1735.412v-3.637a2.8,2.8,0,0,1,2.8-2.8h0a2.8,2.8,0,0,1,2.8,2.8v5.389a2.8,2.8,0,0,1-2.8,2.8h0a2.723,2.723,0,0,1-.528-.05" transform="translate(0 0)"/><path class="b" d="M900.312,1739.286v3.908a2.8,2.8,0,0,1-2.8,2.8h0a2.8,2.8,0,0,1-2.8-2.8v-5.873a2.8,2.8,0,0,1,2.8-2.8h0" transform="translate(0 2.215)"/><path class="b" d="M897.139,1734.063" transform="translate(0.968 2.031)"/></g></g></svg>