<svg xmlns="http://www.w3.org/2000/svg" width="100" height="100" viewBox="0 0 100 100"><defs><style>.a{fill:#fff;opacity:0;}.b,.f{fill:#3a2d2d;}.b{opacity:0.4;}.c{fill:#8d5757;}.d{fill:#ad7575;}.e{opacity:0.3;isolation:isolate;}.g{fill:#4d3030;}.h{fill:#8c5cdd;}.i{fill:#6c27b6;}.j{fill:#511b96;}.k{fill:#f9d600;}.l{fill:#f7c903;}</style></defs><g transform="translate(-58 -631)"><rect class="a" width="100" height="100" transform="translate(58 631)"/><g transform="translate(81.75 658.5)"><path class="b" d="M-2600.693,2982.577c6.275-5.6,32.387-4,35.825-1.473,4.181,3.081,1.083,13.953-4.478,17.588s-21.978,3.349-26.89-1.562S-2602.053,2983.79-2600.693,2982.577Z" transform="translate(2608.472 -2956.44)"/><path class="c" d="M-2600.547,2984.489c7.888-8.426,40.715-6.029,45.037-2.217,5.256,4.638,1.362,21-5.629,26.476s-27.629,5.04-33.8-2.351S-2602.255,2986.315-2600.547,2984.489Z" transform="translate(2602.942 -2967.64)"/><path class="d" d="M-2617.472,2963.666c8.437-9.012,43.545-6.448,48.168-2.372a9.085,9.085,0,0,1,2.205,9.09c-1.07,3.544-5.657,3.68-12.775,4.658-14.342,1.971-37.419,1.089-38.1-3.917C-2618.476,2967.424-2618.249,2964.5-2617.472,2963.666Z" transform="translate(2618.24 -2948.515)"/><g class="e" transform="translate(5.932 28.358)"><path class="f" d="M-2553.109,3159.153a9.217,9.217,0,0,1-4.56-1.145,1.086,1.086,0,0,1-.35-1.5,1.086,1.086,0,0,1,1.5-.349h0a7.137,7.137,0,0,0,3.414.818,1.086,1.086,0,0,1,1.086,1.086,1.086,1.086,0,0,1-1.086,1.085Z" transform="translate(2558.183 -3155.704)"/><path class="f" d="M-2438.249,3174.553a9.229,9.229,0,0,1-4.7-.216,1.086,1.086,0,0,1-.64-1.4,1.085,1.085,0,0,1,1.4-.639h0a7.148,7.148,0,0,0,3.509.123,1.086,1.086,0,0,1,1.279.848,1.086,1.086,0,0,1-.848,1.28Z" transform="translate(2454.965 -3170.334)"/><path class="f" d="M-2322.423,3172.973a9.228,9.228,0,0,1-4.684.4,1.086,1.086,0,0,1-.817-1.3,1.086,1.086,0,0,1,1.3-.817h0a7.152,7.152,0,0,0,3.495-.338,1.084,1.084,0,0,1,1.379.673,1.085,1.085,0,0,1-.673,1.38Z" transform="translate(2350.691 -3169.096)"/><path class="f" d="M-2213.937,3155.046a9.224,9.224,0,0,1-4.567,1.115,1.086,1.086,0,0,1-1.006-1.16,1.086,1.086,0,0,1,1.16-1.007h0a7.142,7.142,0,0,0,3.4-.869,1.086,1.086,0,0,1,1.466.454,1.085,1.085,0,0,1-.454,1.466Z" transform="translate(2252.964 -3153)"/><path class="f" d="M-2491.354,3216.032a9.224,9.224,0,0,1-4.665-.586,1.085,1.085,0,0,1-.527-1.442,1.086,1.086,0,0,1,1.442-.527h0a7.142,7.142,0,0,0,3.488.4,1.085,1.085,0,0,1,1.208.946,1.085,1.085,0,0,1-.947,1.208Z" transform="translate(2502.725 -3207.412)"/><path class="f" d="M-2376.032,3226.533a9.225,9.225,0,0,1-4.7.032,1.086,1.086,0,0,1-.712-1.361,1.086,1.086,0,0,1,1.361-.712h0a7.146,7.146,0,0,0,3.511-.062,1.085,1.085,0,0,1,1.322.78,1.085,1.085,0,0,1-.779,1.322Z" transform="translate(2398.946 -3217.344)"/><path class="f" d="M-2266.917,3217.14a9.227,9.227,0,0,1-4.641.751,1.086,1.086,0,0,1-.912-1.236,1.085,1.085,0,0,1,1.235-.912h0a7.146,7.146,0,0,0,3.46-.6,1.086,1.086,0,0,1,1.426.568,1.085,1.085,0,0,1-.568,1.425Z" transform="translate(2300.701 -3208.928)"/><path class="f" d="M-2316.528,3259.928a9.219,9.219,0,0,1-4.641.751,1.086,1.086,0,0,1-.911-1.236,1.086,1.086,0,0,1,1.235-.912h0a7.139,7.139,0,0,0,3.46-.6,1.085,1.085,0,0,1,1.426.568,1.085,1.085,0,0,1-.568,1.426Z" transform="translate(2345.412 -3247.49)"/><path class="f" d="M-2438.788,3258.746a1.085,1.085,0,0,1-.568-1.426,1.086,1.086,0,0,1,1.426-.568,7.131,7.131,0,0,0,3.459.6h0a1.085,1.085,0,0,1,1.235.912,1.085,1.085,0,0,1-.912,1.236,9.227,9.227,0,0,1-4.64-.752Z" transform="translate(2451.172 -3246.425)"/></g><g transform="translate(5.53 27.823)"><path class="d" d="M-2557.179,3153.728a9.225,9.225,0,0,1-4.559-1.143,1.086,1.086,0,0,1-.35-1.5,1.087,1.087,0,0,1,1.5-.35h0a7.14,7.14,0,0,0,3.415.819,1.085,1.085,0,0,1,1.085,1.085,1.085,1.085,0,0,1-1.085,1.084Z" transform="translate(2562.251 -3150.279)"/><path class="d" d="M-2442.317,3169.129a9.232,9.232,0,0,1-4.7-.216,1.086,1.086,0,0,1-.639-1.4,1.087,1.087,0,0,1,1.4-.639h0a7.145,7.145,0,0,0,3.508.124,1.086,1.086,0,0,1,1.279.848,1.086,1.086,0,0,1-.848,1.28Z" transform="translate(2459.033 -3164.909)"/><path class="d" d="M-2326.491,3167.548a9.228,9.228,0,0,1-4.684.4,1.087,1.087,0,0,1-.817-1.3,1.088,1.088,0,0,1,1.3-.817h0a7.146,7.146,0,0,0,3.495-.337,1.084,1.084,0,0,1,1.379.672,1.086,1.086,0,0,1-.673,1.38Z" transform="translate(2354.759 -3163.672)"/><path class="d" d="M-2218,3149.621a9.225,9.225,0,0,1-4.567,1.115,1.086,1.086,0,0,1-1.007-1.16,1.086,1.086,0,0,1,1.16-1.006h0a7.138,7.138,0,0,0,3.4-.869,1.086,1.086,0,0,1,1.467.454,1.086,1.086,0,0,1-.454,1.466Z" transform="translate(2257.032 -3147.575)"/><path class="d" d="M-2495.423,3210.608a9.23,9.23,0,0,1-4.665-.585,1.086,1.086,0,0,1-.527-1.443,1.086,1.086,0,0,1,1.442-.527h0a7.147,7.147,0,0,0,3.488.4,1.086,1.086,0,0,1,1.209.946,1.085,1.085,0,0,1-.947,1.208Z" transform="translate(2506.794 -3201.989)"/><path class="d" d="M-2380.1,3221.108a9.217,9.217,0,0,1-4.7.033,1.086,1.086,0,0,1-.712-1.361,1.085,1.085,0,0,1,1.36-.712h0a7.139,7.139,0,0,0,3.51-.061,1.086,1.086,0,0,1,1.323.78,1.085,1.085,0,0,1-.779,1.322Z" transform="translate(2403.013 -3211.92)"/><path class="d" d="M-2270.986,3211.715a9.221,9.221,0,0,1-4.641.751,1.085,1.085,0,0,1-.911-1.235,1.086,1.086,0,0,1,1.235-.913h0a7.134,7.134,0,0,0,3.46-.6,1.085,1.085,0,0,1,1.426.568,1.084,1.084,0,0,1-.568,1.425Z" transform="translate(2304.769 -3203.503)"/><path class="d" d="M-2320.6,3254.5a9.231,9.231,0,0,1-4.642.752,1.086,1.086,0,0,1-.911-1.237,1.086,1.086,0,0,1,1.235-.911h0a7.134,7.134,0,0,0,3.459-.6,1.086,1.086,0,0,1,1.427.568,1.086,1.086,0,0,1-.568,1.426Z" transform="translate(2349.48 -3242.065)"/><path class="d" d="M-2442.855,3253.322a1.085,1.085,0,0,1-.568-1.426,1.084,1.084,0,0,1,1.425-.567,7.155,7.155,0,0,0,3.46.6h0a1.086,1.086,0,0,1,1.236.912,1.086,1.086,0,0,1-.912,1.236,9.223,9.223,0,0,1-4.641-.752Z" transform="translate(2455.239 -3241.001)"/></g><path class="g" d="M-2565.291,2990.961c-.686-2.114,9.6-5.4,18.7-5.433s22.515.2,26.762,2.76-6.286,6.19-23.743,5.762S-2564.417,2993.669-2565.291,2990.961Z" transform="translate(2567.934 -2974.687)"/><g transform="translate(16.358 2.334) rotate(13)"><path class="h" d="M10.567.1c4.287,1.424,5.526,4.043,8.422,6.479.9,1.18-.8,2.014-1.406,2.515a1.364,1.364,0,0,1-.2.137c-2.439,1.334-5.558,2.336-10.256.479C3.411,8.242.047,3.665,0,2.1-.028,1.163,2.6.451,4.813.591,7.062.733,9.295-.322,10.567.1Z" transform="translate(0 0)"/><path class="i" d="M0,1.056C.031,1.1.162.8.359.548.61.233.9.143.888.086A.384.384,0,0,0,.332.173,1.543,1.543,0,0,0,0,1.056Z" transform="translate(7.135 1.262)"/><path class="i" d="M0,1.71c.066.022.269-.4.609-.81.43-.522.978-.843.941-.891A.925.925,0,0,0,.687.36,2.557,2.557,0,0,0,0,1.71Z" transform="translate(7.936 0.847)"/><path class="i" d="M.706,0A8.008,8.008,0,0,0,.489,1.1C.315,1.822-.053,2.358.006,2.4A.815.815,0,0,0,.648,1.73,3.271,3.271,0,0,0,.706,0Z" transform="translate(14.69 6.706)"/><path class="i" d="M.3,2.511A8.087,8.087,0,0,0,.3,1.386C.323.639.576.029.51,0A.855.855,0,0,0,.016.809,3.248,3.248,0,0,0,.3,2.511Z" transform="translate(2.953 3.117)"/><path class="i" d="M.014.162C.128.9,0,1.563.064,1.575A.905.905,0,0,0,.393.665C.343.077-.083-.2.014.162Z" transform="translate(16.59 6.248)"/><path class="i" d="M.007,2.285c-.057-.046.246-.452.468-.975C.759.648.779-.006.85,0A.877.877,0,0,1,.965.949,2.832,2.832,0,0,1,.007,2.285Z" transform="translate(10.391 6.491)"/></g><g transform="translate(7.955 0.992)"><path class="j" d="M-2495.794,2890.461c-2.6-5.174-6.708-5.906-10.283-9.152-1.633-.935-1.7.956-2.2,1.807a1.624,1.624,0,0,0-.13.276c-1.171,3.306-1.8,7.414,1.414,13.034,2.542,4.447,8.853,7.924,10.791,7.72,1.167-.124,1.532-3.566.928-6.334C-2495.89,2895-2495.024,2892-2495.794,2890.461Z" transform="translate(2509.357 -2881.056)"/><path class="h" d="M-2412.094,2998.013c-.061-.032.289-.249.557-.54.34-.37.4-.754.468-.745a.5.5,0,0,1,0,.716A1.861,1.861,0,0,1-2412.094,2998.013Z" transform="translate(2423.589 -2983.898)"/><path class="h" d="M-2415.884,2981.552c-.04-.08.437-.406.881-.9.561-.632.85-1.378.916-1.338a1.176,1.176,0,0,1-.264,1.148A3.086,3.086,0,0,1-2415.884,2981.552Z" transform="translate(2426.927 -2968.41)"/><path class="h" d="M-2492.747,2920.733a9.694,9.694,0,0,1-1.316.459c-.858.342-1.448.9-1.514.829a1,1,0,0,1,.706-.924A3.961,3.961,0,0,1-2492.747,2920.733Z" transform="translate(2497.205 -2916.313)"/><path class="h" d="M-2440.241,3051.947a9.843,9.843,0,0,1,1.391-.181c.917-.158,1.621-.58,1.67-.5a1.043,1.043,0,0,1-.9.759A4,4,0,0,1-2440.241,3051.947Z" transform="translate(2448.405 -3032.377)"/><path class="h" d="M-2483.62,2903.52c-.939-.018-1.726.26-1.754.176a1.1,1.1,0,0,1,1.059-.569C-2483.579,2903.092-2483.154,2903.583-2483.62,2903.52Z" transform="translate(2488.208 -2900.676)"/><path class="h" d="M-2484.992,2967.959c.069.064.511-.387,1.113-.756.763-.47,1.567-.606,1.546-.695a1.077,1.077,0,0,0-1.194.015A3.447,3.447,0,0,0-2484.992,2967.959Z" transform="translate(2487.87 -2956.876)"/></g><g transform="translate(28.336 0) rotate(7)"><path class="i" d="M3.825,6.3c3.739-4.329,7.653-4,11.759-6.223,1.729-.489,1.281,1.35,1.5,2.3a1.752,1.752,0,0,1,.044.3c.171,3.48-.365,7.6-4.78,12.2C8.859,18.516,2.217,20.274.519,19.588c-1.022-.413-.428-3.822.862-6.335C2.694,10.7,2.716,7.588,3.825,6.3Z" transform="translate(0 0)"/><path class="h" d="M.833,1.5C.9,1.481.638,1.184.474.835.266.394.319.01.251,0A.518.518,0,0,0,.057.689C.175,1.031.424,1.205.833,1.5Z" transform="translate(3.598 9.866)"/><path class="h" d="M1.209,2.615c.058-.067-.287-.5-.554-1.094C.318.771.257-.02.186,0A1.233,1.233,0,0,0,.117,1.173,2.916,2.916,0,0,0,1.209,2.615Z" transform="translate(3.891 7.924)"/><path class="h" d="M0,0C-.037.081.528.344,1.069.775,1.754,1.32,2.138,2,2.216,1.956A1,1,0,0,0,1.826.887,3.533,3.533,0,0,0,0,0Z" transform="translate(13.397 3.797)"/><path class="h" d="M2.587,1.434c.02-.087-.588-.221-1.21-.525C.59.525.067-.059,0,0A1,1,0,0,0,.613.963,3.53,3.53,0,0,0,2.587,1.434Z" transform="translate(3.392 16.022)"/><path class="h" d="M.163.273C1.017.493,1.654.959,1.7.885A1.017,1.017,0,0,0,.9.07C.241-.15-.276.215.163.273Z" transform="translate(13.543 1.974)"/><path class="h" d="M2.017,2.122c-.079.045-.358-.5-.8-1.009C.649.468-.041.134,0,.054A.962.962,0,0,1,1.078.37,3.348,3.348,0,0,1,2.017,2.122Z" transform="translate(11.022 8.492)"/></g><g transform="translate(30.273 6.166) rotate(-3)"><path class="h" d="M8.045,1.836C13.01-.7,15.362.022,18.714.353S21.6,2.227,21.456,3.163a1.672,1.672,0,0,1-.07.285c-1.123,3.2-3.118,6.72-8.793,9.253-4.49,2-11.13,1.151-12.41-.092C-.588,11.861,1.2,9,3.287,7.209,5.412,5.383,6.572,2.588,8.045,1.836Z" transform="translate(0 0)"/><path class="i" d="M.406,1.564C.469,1.572.346,1.21.325.835.3.361.489.034.431,0A.506.506,0,0,0,0,.551,1.69,1.69,0,0,0,.406,1.564Z" transform="translate(6.328 5.059)"/><path class="i" d="M.459,2.735a7.916,7.916,0,0,0-.1-1.19C.332.743.568.007.5,0A1.2,1.2,0,0,0,0,1.033,2.838,2.838,0,0,0,.459,2.735Z" transform="translate(7.181 3.391)"/><path class="i" d="M.007,0C-.058.059.356.5.685,1.091c.417.744.513,1.5.6,1.487a.972.972,0,0,0,.04-1.108A3.441,3.441,0,0,0,.007,0Z" transform="translate(17.598 3.09)"/><path class="i" d="M1.895,2.241c.05-.071-.45-.416-.9-.918C.427.687.169-.032.086,0a.971.971,0,0,0,.2,1.09A3.44,3.44,0,0,0,1.895,2.241Z" transform="translate(3.997 10.45)"/><path class="i" d="M.117.2C.807.714,1.211,1.369,1.281,1.32A.99.99,0,0,0,.855.288C.343-.151-.258-.011.117.2Z" transform="translate(18.334 1.602)"/><path class="i" d="M1.065,2.606C.977,2.617.926,2.022.71,1.4.438.611-.062.056.006,0A.938.938,0,0,1,.862.68,3.261,3.261,0,0,1,1.065,2.606Z" transform="translate(13.712 6.503)"/></g><g transform="matrix(0.996, -0.087, 0.087, 0.996, 2.449, 7.003)"><path class="i" d="M11.707,6.27c3,4.337,1.8,7.752,2.831,11.929.037,1.656-1.5.831-2.4.811a1.619,1.619,0,0,1-.276-.03C8.723,18.328,5.175,16.9,2.09,11.9-.352,7.936-.383,1.6.621.248c.6-.816,3.509.5,5.452,2.234C8.051,4.245,10.818,4.983,11.707,6.27Z" transform="translate(0 0)"/><path class="h" d="M0,.517C0,.576.323.416.673.349c.442-.083.772.053.8-.005A.478.478,0,0,0,.9.011,1.593,1.593,0,0,0,0,.517Z" transform="translate(7.055 5.124)"/><path class="h" d="M0,.663A7.489,7.489,0,0,0,1.1.422c.748-.128,1.467,0,1.465-.067A1.136,1.136,0,0,0,1.539.022,2.689,2.689,0,0,0,0,.663Z" transform="translate(7.634 5.765)"/><path class="h" d="M2.258,0c-.063-.053-.428.39-.938.773-.645.485-1.344.669-1.319.75a.919.919,0,0,0,1.044-.1A3.253,3.253,0,0,0,2.258,0Z" transform="translate(9.471 15.386)"/><path class="h" d="M0,2.015c.073.038.333-.474.748-.958C1.273.444,1.915.113,1.873.039a.919.919,0,0,0-1,.325A3.253,3.253,0,0,0,0,2.015Z" transform="translate(1.26 3.596)"/><path class="h" d="M.905.126C.512.836-.051,1.3,0,1.357A.937.937,0,0,0,.917.828C1.265.293,1.059-.252.905.126Z" transform="translate(12.136 15.898)"/><path class="h" d="M0,1.324c-.022-.081.53-.2,1.086-.484C1.792.486,2.25-.053,2.311,0a.887.887,0,0,1-.53.888A3.09,3.09,0,0,1,0,1.324Z" transform="translate(5.731 12.17)"/></g><g transform="matrix(0.999, -0.035, 0.035, 0.999, 18.853, 0.536)"><path class="k" d="M1.381,9.17C-1.363,15.219.891,19.183.542,24.594c.326,2.061,2.046.694,3.151.469a2.038,2.038,0,0,0,.336-.1c3.752-1.513,7.83-4.08,10.535-10.974a9.373,9.373,0,0,0,.567-6.019,11.328,11.328,0,0,0-.315-4.626,3.717,3.717,0,0,1-.264-1.26A2.441,2.441,0,0,0,13.5,0,7.721,7.721,0,0,0,7.919,3.32c-1.914.895-2.9,2.358-4.123,3.334A8.215,8.215,0,0,0,1.381,9.17Z" transform="translate(0 0)"/><path class="i" d="M1.381,2.289C-1.363,8.338.891,12.3.542,17.713c.326,2.061,2.046.694,3.151.469a2.038,2.038,0,0,0,.336-.1C7.781,16.57,11.859,14,14.564,7.109c-1.649,1.9-3.392.383-5.081.474-3.06.164-4.245-.546-5.765-3.835C2.7,1.554,3.047.962,3.513,0A7.337,7.337,0,0,0,1.381,2.289Z" transform="translate(0 6.881)"/><path class="h" d="M0,.009C.066-.071.618.4,1.336.757c.908.456,1.816.529,1.8.635A1.159,1.159,0,0,1,1.823,1.5,4.1,4.1,0,0,1,0,.009Z" transform="translate(3.397 20.473)"/><path class="h" d="M.238.133C.885.926,1.687,1.371,1.632,1.458A1.181,1.181,0,0,1,.381,1.006C-.17.421-.036-.3.238.133Z" transform="translate(1.673 21.428)"/><path class="h" d="M3.16,1.126c.008-.1-.7-.134-1.455-.356C.751.489.063-.076,0,.008A1.117,1.117,0,0,0,.856.989,3.885,3.885,0,0,0,3.16,1.126Z" transform="translate(7.247 15.66)"/><path class="h" d="M3.16,1.126c.008-.1-.7-.134-1.455-.356C.751.489.063-.076,0,.008A1.117,1.117,0,0,0,.856.989,3.885,3.885,0,0,0,3.16,1.126Z" transform="matrix(0.755, 0.656, -0.656, 0.755, 1.637, 12.626)"/><path class="h" d="M2.408,1.126C2.414,1.021,1.873.993,1.3.77.572.489.048-.076,0,.008A1.067,1.067,0,0,0,.652.989,2.3,2.3,0,0,0,2.408,1.126Z" transform="translate(2.036 15.752) rotate(11)"/><path class="l" d="M1.237,8.889A8.147,8.147,0,0,0,2.379,6.061,8.135,8.135,0,0,1,3.409,3.6c.24-.2.179,1.118.018,1.608A28.083,28.083,0,0,0,4.546,0c.379-.011.982,3.034.415,5.908.385,1.038-.48,5.269-.943,5.539-.289.169-1.267-.205-2.363-.417a9.3,9.3,0,0,0-1.647-.047C-.08,10.288.642,9.869,1.237,8.889Z" transform="translate(8.688 3.502)"/><path class="l" d="M2.145,0a3.065,3.065,0,0,1-.657,1.473A8.222,8.222,0,0,1,0,2.871,11.882,11.882,0,0,1,1.549.515Z" transform="translate(5.76 3.998)"/><path class="l" d="M1.977.106A4.438,4.438,0,0,0,0,1.328,4.3,4.3,0,0,1,1.286.858c-.467.506-.7.751-.7.751S1.456,1.016,2.271.487,2.509-.091,1.977.106Z" transform="translate(10.95 0.406)"/></g><path class="d" d="M-2545.659,3025.781s-4.836,4.273-26.167,3.977-19.739-1.129-21.01-1.975c-1.679-1.116-4.856,4.181,2.505,7.519,3.653,1.656,7.632,1.273,15.122,1.708,7.606.442,14.833-.285,18.069-1.708C-2550.72,3032.477-2545.029,3030.969-2545.659,3025.781Z" transform="translate(2596.079 -3010.467)"/></g></g></svg>