<svg xmlns="http://www.w3.org/2000/svg" width="72" height="72" viewBox="0 0 72 72"><defs><style>.a{fill:#fff;opacity:0;}.b,.d,.h{fill:#3a2d2d;}.b{opacity:0.1;}.b,.d,.l{isolation:isolate;}.c{fill:#733ab5;}.d{opacity:0.3;}.e{fill:#ef8200;}.f{fill:#ff9e12;}.g,.l{opacity:0.2;}.i{fill:#b54615;}.j{fill:#edeceb;}.k{fill:#5e30a0;}</style></defs><g transform="translate(-230 -763)"><rect class="a" width="72" height="72" transform="translate(230 763)"/><g transform="translate(237.2 770.286)"><path class="b" d="M603.849,1411.186c.312-3.944,3.408-8.828,9.884-12.032a33.13,33.13,0,0,1,10.524-3.316c6.076-.67,6.561-.122,11.433-.206,5.233-.09,10.615-2.478,13.99,1.07,1.2,1.259,2.541,4.948,3.035,7.531,2.31,12.076,3.384,17.26,2.54,23.117a25.59,25.59,0,0,1-12.168,19.067c-6.307,4.176-13.4,5.085-19.563,4.687-6.552-.423-16.337-3.827-20.174-10.526C596.821,1429.178,597.148,1415.645,603.849,1411.186Z" transform="translate(-597.94 -1393.76)"/><path class="c" d="M596.7,1402.878a2.475,2.475,0,0,0,.86-1.467c.683-3.762,3.781-8.155,9.765-11.114a33.116,33.116,0,0,1,10.524-3.316c6.075-.67,6.561-.123,11.431-.206,2.694-.046,5.211-1.134,7.69-1.275a7.974,7.974,0,0,1,6.3,2.345c1.2,1.259,2.54,4.948,3.034,7.53,2.31,12.077,3.384,17.262,2.54,23.118a25.586,25.586,0,0,1-12.168,19.066c-6.307,4.176-13.4,5.085-19.563,4.687-6.552-.424-16.337-3.827-20.173-10.527C590.657,1420.753,590.721,1407.817,596.7,1402.878Z" transform="translate(-592.222 -1385.485)"/><path class="d" d="M620.162,1454.667a3.3,3.3,0,0,0,1.549-2c1.469-6.778,7.36-9.792,18.815-10.691,12.213-.952,20.554,4.639,23.645,13.4,3.579,3.938,4.3,11.721,2.318,20.063-1.656,6.969-6.541,10.608-11.852,13.306-6.463,3.283-15.49,3.593-21.62,1.912-8.183-2.243-12.711-7.075-15-13.47C614.718,1467.966,615.1,1457.927,620.162,1454.667Z" transform="translate(-613.323 -1435.779)"/><path class="e" d="M613.418,1449.8a6.914,6.914,0,0,0,2.2-2.969c1.469-6.777,6.82-8.819,18.274-9.717,12.213-.953,20.554,4.638,23.645,13.4,3.579,3.938,4.3,11.72,2.319,20.062-1.656,6.969-6.541,10.608-11.852,13.306-6.463,3.283-15.49,3.592-21.62,1.911-8.183-2.244-12.711-7.076-15-13.47C608.082,1463.1,608.352,1453.06,613.418,1449.8Z" transform="translate(-607.367 -1431.437)"/><path class="f" d="M638.519,1487.443a20.115,20.115,0,0,0,4.394-7.406c1.969-5.868,9.647-6.916,16.326-7.021,6.712-.105,13.726,3.668,18.094,10.829,2.407,3.923,4.135,10.748,2.907,16.215-1.028,4.566-5.625,7.874-10.19,10.262-5.554,2.907-9.553,6.625-17.422,4.734-7.139-1.715-11.373-4.788-13.417-10.293C636.261,1496.819,634.748,1491.038,638.519,1487.443Z" transform="translate(-631.515 -1463.55)"/><g transform="translate(20.678 26.437)"><path class="e" d="M787.422,1630.36c1.981-.709,8.058-.359,8.626,1.318.6,1.782-.555,3.095-4.1,3.736-2.135.388-5.475.193-6.88-1.114-1.524-1.279-2.407-2.338-.472-3.235C784.723,1631.008,787.286,1630.409,787.422,1630.36Z" transform="translate(-783.487 -1630.013)"/></g><g class="g" transform="translate(18.952 20.141)"><path class="h" d="M781.024,1651.724h0a2.155,2.155,0,0,1-2.151-2.16c0-1.187.893-1.236,2.081-1.24s2.232.048,2.232,1.24A2.327,2.327,0,0,1,781.024,1651.724Z" transform="translate(-777.643 -1640.048)"/><path class="h" d="M885.824,1650.475c.111,1.147-.716,1.427-2.121,1.541-1.161.093-1.979-.019-2.078-1.18a2.112,2.112,0,0,1,1.913-2.282,2,2,0,0,1,2.266,1.692A2.158,2.158,0,0,1,885.824,1650.475Z" transform="translate(-869.281 -1640.235)"/><path class="h" d="M860.3,1586.219c-.6-.492-1.064-.728-2.315-.233a29.431,29.431,0,0,0-2.9,2.555c-.623.512-1.083.489-1.317.388a.918.918,0,0,1-.473-1.382c.136-.222.533-.355.823-.679,1.254-1.4,1.868-2.23,3.752-2.883a4.566,4.566,0,0,1,3.945.877c.576.439.941,1.279.207,1.793C861.525,1587.007,860.7,1586.545,860.3,1586.219Z" transform="translate(-843.885 -1582.522)"/><path class="h" d="M768.067,1574.85c-.852-.278-.571-1.509-.074-2.036a3.95,3.95,0,0,1,4.042-.769,9.535,9.535,0,0,1,3.09,3.62,1.071,1.071,0,0,1-.474,1.381,1.287,1.287,0,0,1-1.355-.212,3.5,3.5,0,0,1-.524-.965c-.663-.9-.889-1.492-1.677-1.93a.99.99,0,0,0-1.378.294A1.54,1.54,0,0,1,768.067,1574.85Z" transform="translate(-767.521 -1571.782)"/></g><g transform="translate(18.778 19.642)"><path class="i" d="M789.536,1679.7c4.064,0,4.784,1.492,5.168,1.93,1.106,1.263,1.807,4.218,1.011,5.94-.589,1.274-1.416,3.982-6.358,3.982a6.434,6.434,0,0,1-6.689-4.913,5.6,5.6,0,0,1,.706-4.395C784.237,1680.933,785.562,1679.7,789.536,1679.7Z" transform="translate(-780.694 -1667.537)"/><path class="h" d="M858.689,1581.6c-.6-.492-1.064-.728-2.315-.233a29.383,29.383,0,0,0-2.9,2.554c-.623.512-1.083.489-1.317.388a.918.918,0,0,1-.474-1.382c.137-.222.533-.355.823-.679,1.254-1.4,1.868-2.23,3.752-2.883a4.567,4.567,0,0,1,3.944.877c.576.439.941,1.279.207,1.793C859.91,1582.391,859.083,1581.929,858.689,1581.6Z" transform="translate(-842.271 -1577.906)"/><path class="h" d="M766.453,1570.234c-.852-.278-.571-1.509-.073-2.035a3.949,3.949,0,0,1,4.042-.769,8.042,8.042,0,0,1,2.994,3.4c.27.716.123,1.4-.378,1.6a1.34,1.34,0,0,1-1.355-.212,2.32,2.32,0,0,1-.524-.965,3.653,3.653,0,0,0-1.677-1.93.99.99,0,0,0-1.378.294A1.54,1.54,0,0,1,766.453,1570.234Z" transform="translate(-765.907 -1567.166)"/><path class="h" d="M775.952,1647.35h0a2.16,2.16,0,0,1-2.153-2.16c0-1.187.893-1.237,2.081-1.241s2.232.048,2.232,1.241A2.328,2.328,0,0,1,775.952,1647.35Z" transform="translate(-772.942 -1635.647)"/><path class="h" d="M880.736,1646.1c.111,1.146-.716,1.427-2.122,1.541-1.161.093-1.979-.019-2.078-1.18a2.11,2.11,0,0,1,1.912-2.279,2,2,0,0,1,2.267,1.691A2.279,2.279,0,0,1,880.736,1646.1Z" transform="translate(-864.569 -1635.835)"/></g><path class="j" d="M848.469,1692.524c-.023.39-.146.554-.536.521s-.547-.127-.547-.521,0-.671.547-.707S848.49,1692.134,848.469,1692.524Z" transform="translate(-819.799 -1658.696)"/><path class="j" d="M835.119,1692.524c-.021.39-.145.554-.535.521s-.547-.127-.547-.521,0-.671.547-.707S835.141,1692.134,835.119,1692.524Z" transform="translate(-807.894 -1658.696)"/><path class="k" d="M930.591,1410.09c-.013.268,1.78.388,3.694,1.008,2.424.785,4.2,2.283,4.353,2.07a3.057,3.057,0,0,0-2.218-2.584C933.65,1409.624,930.607,1409.772,930.591,1410.09Z" transform="translate(-894.009 -1407.214)"/><path class="k" d="M1061.841,1513.063c-.187.13-.042.708.894,2.093,1.125,1.665,1.282,3.077,1.488,3.012a3.811,3.811,0,0,0,.008-2.5C1063.49,1514.174,1062.042,1512.923,1061.841,1513.063Z" transform="translate(-1011.006 -1499.26)"/><path class="k" d="M878.771,1411.858c-.009.187.476.342,1.947.308,1.77-.041,2.795.443,2.91.3.211-.258-.082-.773-2.219-.973C879.965,1411.359,878.781,1411.658,878.771,1411.858Z" transform="translate(-847.791 -1408.653)"/><g class="l" transform="translate(20.57 31.817)"><path class="h" d="M783.746,1683.188c.863-1.315,2.189-2.544,6.162-2.544,4.064,0,4.784,1.492,5.168,1.93a4.215,4.215,0,0,1,.545.817,5.239,5.239,0,0,0-.917-1.682c-.384-.438-1.1-1.93-5.168-1.93-3.973,0-5.3,1.229-6.162,2.544a5.6,5.6,0,0,0-.706,4.395,8.084,8.084,0,0,0,.552,1.421c-.077-.214-.135-.4-.18-.557A5.6,5.6,0,0,1,783.746,1683.188Z" transform="translate(-782.487 -1679.779)"/></g></g></g></svg>