<svg xmlns="http://www.w3.org/2000/svg" width="50" height="50" viewBox="0 0 50 50"><defs><style>.a{fill:#fff;opacity:0;}.b{fill:#e35959;}.c{fill:#ffb282;}.d{fill:#a0f;}.e{fill:#9217de;}.f{fill:#770fbe;}</style></defs><g transform="translate(-30 -234)"><rect class="a" width="50" height="50" transform="translate(30 234)"/><g transform="translate(-353.965 -913.477)"><path class="b" d="M407.835,1191.547c5.327-.037,10-1.066,13.729-6.928,2.739-4.307,2.942-11.528,1.572-15.7-1.123-3.419-3.44-5.777-2.659-8.43a3.182,3.182,0,0,0-3.7,2.03c-.576,1.643-2.538.246-2.5-3.1.041-3.868-3.3-5.5-6.4-6.011,1.129,2.613-.351,3.408-3.671,6.436a10.56,10.56,0,0,0-2.829,6.385c-.175,1.771-1.521,1.2-1.423-.059a2.988,2.988,0,0,0-1.618-3.031c.269,3.544-3.521,5.6-4.157,9.543-.459,2.852,1.837,5.394,1.3,6.416-.444.851-.893.367-1.512-.349.073,3.34.041,4.668,2.521,8.06C398.977,1190.215,404.321,1191.572,407.835,1191.547Z"/><path class="c" d="M453.629,1300.289c2.036.036,7.445-.557,10.711-4.894,2.5-3.313,2.589-8.919,1.965-12.291-.587-3.152-2.445-4.581-1.832-6.65a1.842,1.842,0,0,0-2.151,1.068c-.551,1.244-3.334.782-3.682-1.813a5.827,5.827,0,0,0-3.5-5.1c-.483,2.194-1.782,3.07-4.377,5.436-1.378,1.257-1.457,2.564-1.913,4.02-.644,2.06-1.923,3.389-2.569,2.008-.391-.846-.6-1.571-1.518-1.969.21,2.77-1.34,2.887-1.836,5.971-.359,2.229,1.585,3.954,1.4,5.281-.168,1.207-1.611,1.528-2.095.969.057,2.61,1.357,3.723,2.5,4.792C447.179,1299.333,451.592,1300.253,453.629,1300.289Z" transform="translate(-45.519 -110.848)"/><g transform="translate(401.251 1169.83)"><path class="d" d="M554.238,1480.884c1.281.088,1.555-.338,2.29-.38a2.378,2.378,0,0,1,1.88.7,5.734,5.734,0,0,1,.905,2.246c.689,3.6,1.01,5.15.758,6.9a8.429,8.429,0,0,1-3.643,6.107,10.608,10.608,0,0,1-6.2,1.551c-1.954-.126-5.412.7-6.557-1.295-1.873-3.271-.538-9.158.839-11.02A11.359,11.359,0,0,1,554.238,1480.884Z" transform="translate(-542.743 -1480.497)"/><path class="e" d="M574.605,1493.689a5.732,5.732,0,0,1,.905,2.246c.689,3.6,1.01,5.15.758,6.9a8.429,8.429,0,0,1-3.643,6.107,10.607,10.607,0,0,1-6.2,1.551c-1.954-.126-5.412.7-6.557-1.295-.4-.7,7.214-.378,10.7-3.872C574.536,1501.342,574.465,1493.542,574.605,1493.689Z" transform="translate(-558.937 -1492.984)"/><path class="f" d="M610.67,1582.44c.066.074.592-.334,1.28-.641.872-.388,1.75-.432,1.737-.52a1.209,1.209,0,0,0-1.28-.132A3.66,3.66,0,0,0,610.67,1582.44Z" transform="translate(-607.701 -1575.66)"/><path class="f" d="M750.335,1543.933c-.025.094.631.262,1.295.615.84.446,1.387,1.1,1.461,1.033a1.084,1.084,0,0,0-.63-1.064A3.838,3.838,0,0,0,750.335,1543.933Z" transform="translate(-739.492 -1540.548)"/><path class="f" d="M734.366,1513.272a9.485,9.485,0,0,0,1.375.433c.9.328,1.54.9,1.6.825a1.105,1.105,0,0,0-.784-.967A3.873,3.873,0,0,0,734.366,1513.272Z" transform="translate(-724.423 -1511.479)"/><path class="f" d="M792.108,1646.478c-.064.075.459.487.907,1.069.569.737.78,1.543.874,1.514a1.046,1.046,0,0,0-.11-1.214A3.639,3.639,0,0,0,792.108,1646.478Z" transform="translate(-778.905 -1637.616)"/></g></g></g></svg>