<svg xmlns="http://www.w3.org/2000/svg" width="72" height="72" viewBox="0 0 72 72"><defs><style>.a{fill:#fff;opacity:0;}.b,.h,.i,.n{fill:#3a2d2d;}.b,.h{opacity:0.1;}.b{isolation:isolate;}.c{fill:#733ab5;}.d{fill:#c65a10;}.e{fill:#f49314;}.f{fill:#ffc433;}.g{fill:#f27c08;}.j{fill:#9b3e3e;}.k{fill:#5e30a0;}.l{fill:#edeceb;}.m{fill:#ffa350;}.n{opacity:0.2;}</style></defs><g transform="translate(-30 -763)"><g transform="translate(30 763)"><rect class="a" width="72" height="72"/><g transform="translate(7.2 7.496)"><path class="b" d="M-606.151,1485.63c.312-3.944,3.408-8.829,9.884-12.032a33.128,33.128,0,0,1,10.524-3.315c6.076-.67,6.561-.123,11.433-.206,5.233-.09,10.615-2.478,13.99,1.07,1.2,1.259,2.541,4.948,3.035,7.53,2.31,12.076,3.384,17.26,2.54,23.117a25.588,25.588,0,0,1-12.168,19.067c-6.307,4.176-13.4,5.085-19.563,4.687-6.552-.423-16.337-3.827-20.174-10.527C-613.179,1503.622-612.852,1490.089-606.151,1485.63Z" transform="translate(612.06 -1468.625)"/><path class="c" d="M-612.56,1480.243c.312-3.944,3.408-8.829,9.885-12.032a33.109,33.109,0,0,1,10.524-3.316c6.075-.67,6.561-.123,11.431-.206,5.233-.09,10.615-2.478,13.99,1.07,1.2,1.259,2.54,4.948,3.034,7.53,2.311,12.077,3.384,17.262,2.54,23.118a25.588,25.588,0,0,1-12.168,19.066c-6.306,4.176-13.4,5.085-19.563,4.687-6.552-.423-16.337-3.827-20.173-10.527C-619.592,1498.233-619.263,1484.7-612.56,1480.243Z" transform="translate(617.778 -1463.82)"/><path class="d" d="M-596.125,1504.262a3.3,3.3,0,0,0,1.549-2c1.126-5.2,4.9-8.18,11.659-9.69-.451-.254-.633-.78-.343-.693a8.875,8.875,0,0,0,2.588-.054c1.433-.213,2.61-1.2,4.218-.635-1.242-.475-.113-2.38.189-2.122,1.121.957,5.181,2.15,6.306,2.224,9.655.642,15.227,4.968,17.842,13.681,3.579,3.938,4.3,11.72,2.318,20.063-1.656,6.969-6.54,10.608-11.852,13.306-6.463,3.283-15.49,3.593-21.62,1.912-8.184-2.244-12.711-7.075-15-13.47C-601.569,1517.562-601.19,1507.523-596.125,1504.262Z" transform="translate(602.284 -1486.321)"/><path class="e" d="M-574.925,1554.467a5.769,5.769,0,0,0,2.232-2.347c1.383-6.165,6.159-8.375,16.947-9.192,11.5-.866,18.818,4.791,21.73,12.762,3.371,3.582,4.589,10.089,2.723,17.677-1.56,6.339-6.16,9.649-11.162,12.1-6.087,2.986-14.589,3.268-20.362,1.739-7.708-2.041-11.167-6-13.322-11.812C-579.247,1567-579.7,1557.432-574.925,1554.467Z" transform="translate(583.24 -1534.674)"/><path class="f" d="M-560.153,1573.179c1.5-1.113,2.188-2.811,3.153-4.369,3.914-6.321,8.129-6.194,16.481-6.321,8.393-.126,14.086,4,18.457,10.842,2.409,3.748,3.841,9.643,2.214,16.555-1.361,5.774-5.485,7.358-10.053,9.64-5.558,2.777-10.88,5.072-18.754,3.266-7.144-1.639-10.4-6.75-12.442-12.01C-564.048,1583.192-564.5,1575.926-560.153,1573.179Z" transform="translate(569.775 -1552.161)"/><path class="g" d="M-489.15,1729.08c1.157-1.258,3.482,0,3.664,1.414.154,1.195-.6,2.458-2.876,2.869a4.989,4.989,0,0,1-4.16-1.189C-494.242,1730.08-491.035,1727.111-489.15,1729.08Z" transform="translate(506.502 -1699.826)"/><path class="g" d="M-301.784,1729.08c1.157-1.258,3.482,0,3.664,1.414.154,1.195-.6,2.458-2.876,2.869a4.989,4.989,0,0,1-4.16-1.189C-306.876,1730.08-303.669,1727.111-301.784,1729.08Z" transform="translate(339.392 -1699.826)"/><path class="h" d="M-438.86,1633.95a1.091,1.091,0,0,1-1.066-.864c-.044-.163-.288-.78-1.321-.78-1.271,0-1.629.465-1.631.469a1.063,1.063,0,0,1-1.436.441l-.02-.012a1.126,1.126,0,0,1-.441-1.512c.085-.158.9-1.575,3.528-1.575a3.367,3.367,0,0,1,3.456,2.515,1.092,1.092,0,0,1-.841,1.3h0A1.159,1.159,0,0,1-438.86,1633.95Z" transform="translate(463.598 -1612.133)"/><path class="h" d="M-332.412,1633.973a1.591,1.591,0,0,0-1.405-.614,2.5,2.5,0,0,0-1.564.669c-.4.432-.82.821-1.368.614l-.026-.013a1.127,1.127,0,0,1-.623-1.44c.176-.469,1.045-1.625,3.287-1.842,1.987-.2,3.035.384,3.762,1.928a.989.989,0,0,1-.482,1.313.985.985,0,0,1-.2.068A1.289,1.289,0,0,1-332.412,1633.973Z" transform="translate(367.776 -1613.202)"/><path class="h" d="M-448.614,1782.944c.623,1.075,2.638,3.043,6.967,3.043,4.427,0,7.15-2.027,7.627-2.836a1.137,1.137,0,0,1,1.472-.443c.437.276.72.737.216,1.639-.085.164-2.7,3.824-9.32,3.824-6.741,0-9-4.4-9.05-4.589a1.08,1.08,0,0,1,.7-1.358l.021-.006C-449.332,1782.032-448.985,1782.3-448.614,1782.944Z" transform="translate(468.813 -1747.744)"/><path class="i" d="M-443.947,1629.588a1.092,1.092,0,0,1-1.066-.864c-.044-.163-.288-.781-1.321-.781-1.271,0-1.629.465-1.631.469a1.062,1.062,0,0,1-1.436.441h0l-.02-.011a1.126,1.126,0,0,1-.441-1.512c.085-.158.9-1.575,3.528-1.575a3.367,3.367,0,0,1,3.456,2.515,1.092,1.092,0,0,1-.841,1.3h0A1.122,1.122,0,0,1-443.947,1629.588Z" transform="translate(468.135 -1608.243)"/><path class="i" d="M-337.495,1629.6a1.6,1.6,0,0,0-1.405-.618,2.5,2.5,0,0,0-1.564.669c-.4.432-.82.821-1.368.614l-.025-.01a1.127,1.127,0,0,1-.623-1.44c.176-.47,1.045-1.625,3.287-1.843,1.987-.2,3.035.384,3.762,1.929a.99.99,0,0,1-.484,1.314.986.986,0,0,1-.2.068A1.29,1.29,0,0,1-337.495,1629.6Z" transform="translate(372.308 -1609.299)"/><path class="j" d="M-444.935,1778.807c4.427,0,8.742-.465,9.273-.209.436.276.72.736.216,1.638-.085.163-2.7,3.824-9.32,3.824-6.741,0-9-4.4-9.05-4.589a1.08,1.08,0,0,1,.7-1.358l.021-.006C-452.447,1777.922-449.263,1778.807-444.935,1778.807Z" transform="translate(471.59 -1744.106)"/><path class="i" d="M-329.239,1721.058c0,1.5-1.332.455-2.68.917-1.1.378-1.862.025-1.859-1.14a2.115,2.115,0,0,1,2.1-2.1,2.391,2.391,0,0,1,2.435,2.1A2.269,2.269,0,0,1-329.239,1721.058Z" transform="translate(364.482 -1691.172)"/><path class="i" d="M-435.352,1720.952c0,1.5-1.332.455-2.68.917-1.1.378-1.862.025-1.859-1.14a2.2,2.2,0,0,1,2.1-2.1,2.258,2.258,0,0,1,2.435,2.1A2.278,2.278,0,0,1-435.352,1720.952Z" transform="translate(459.123 -1691.066)"/><path class="k" d="M-256.1,1491.371c-.05.264,1.709.632,3.519,1.512,2.292,1.114,3.841,2.844,4.023,2.655a3.057,3.057,0,0,0-1.838-2.867C-253,1491.333-256.036,1491.058-256.1,1491.371Z" transform="translate(295.199 -1488.288)"/><path class="k" d="M-161.736,1567.4c-.174.147.027.709,1.091,2,1.28,1.548,1.574,2.939,1.773,2.854a3.812,3.812,0,0,0-.234-2.49C-159.988,1568.351-161.549,1567.246-161.736,1567.4Z" transform="translate(211.09 -1556.192)"/><path class="k" d="M-309.209,1491.931c-.022.185.451.374,1.921.442,1.769.082,2.757.637,2.882.5.229-.243-.029-.776-2.146-1.125C-307.983,1491.517-309.185,1491.732-309.209,1491.931Z" transform="translate(342.57 -1488.641)"/><path class="l" d="M-364.708,1788.536c-.023.39-.146.554-.536.521s-.547-.127-.547-.521,0-.671.547-.707S-364.687,1788.146-364.708,1788.536Z" transform="translate(393.035 -1752.797)"/><path class="l" d="M-378.058,1788.536c-.021.39-.144.554-.535.521s-.547-.127-.547-.521,0-.671.547-.707S-378.036,1788.146-378.058,1788.536Z" transform="translate(404.939 -1752.797)"/><g transform="translate(1.878 2.728)"><path class="i" d="M-594.918,1505.75a3.3,3.3,0,0,0,1.549-2c1.126-5.2,4.9-8.18,11.659-9.69-.451-.254-.633-.78-.343-.693a8.87,8.87,0,0,0,2.588-.054c1.433-.213,2.61-1.2,4.218-.635-1.242-.475-.113-2.38.189-2.122,1.121.957,5.181,2.15,6.307,2.224,5.993.4,10.412,2.217,13.527,5.622-3.142-4.368-7.922-6.656-14.734-7.109-1.125-.075-5.186-1.267-6.306-2.224-.3-.257-1.431,1.647-.189,2.122-1.608-.561-2.785.422-4.218.635a8.875,8.875,0,0,1-2.588.054c-.29-.087-.108.438.343.693-6.763,1.511-10.533,4.495-11.659,9.69a3.3,3.3,0,0,1-1.549,2c-5.066,3.26-5.444,13.3-2.144,22.526a21.206,21.206,0,0,0,4.146,7.12,22.034,22.034,0,0,1-2.939-5.633C-600.362,1519.049-599.984,1509.01-594.918,1505.75Z" transform="translate(600.406 -1489.049)"/></g><path class="m" d="M-264.775,1737.031c-.173.307-1.941.324-2.091,0s.359-.96,1.045-.946C-265.427,1736.093-264.452,1736.458-264.775,1737.031Z" transform="translate(304.827 -1706.65)"/><path class="m" d="M-478.885,1736.585c-.173.306-1.941.323-2.091,0s.359-.96,1.045-.946C-479.537,1735.647-478.562,1736.012-478.885,1736.585Z" transform="translate(495.789 -1706.252)"/><path class="n" d="M-329.239,1721.058c0,1.5-1.332.455-2.68.917-1.1.378-1.862.025-1.859-1.14a2.115,2.115,0,0,1,2.1-2.1,2.391,2.391,0,0,1,2.435,2.1A2.269,2.269,0,0,1-329.239,1721.058Z" transform="translate(365.127 -1690.625)"/><path class="n" d="M-435.352,1720.952c0,1.5-1.332.455-2.68.917-1.1.378-1.862.025-1.859-1.14a2.2,2.2,0,0,1,2.1-2.1,2.258,2.258,0,0,1,2.435,2.1A2.278,2.278,0,0,1-435.352,1720.952Z" transform="translate(459.768 -1690.52)"/></g></g></g></svg>