<svg xmlns="http://www.w3.org/2000/svg" width="118" height="118" viewBox="0 0 118 118"><defs><style>.a{fill:#fff;opacity:0;}.b,.f{fill:#3a2d2d;}.b{opacity:0.4;}.c{fill:#8d5757;}.d{fill:#ad7575;}.e{opacity:0.3;isolation:isolate;}.g{fill:#4d3030;}.h{fill:#8c5cdd;}.i{fill:#6c27b6;}.j{fill:#511b96;}.k{fill:#f9d600;}.l{fill:#f7c903;}</style></defs><g transform="translate(-78 -651)"><rect class="a" width="118" height="118" transform="translate(78 651)"/><g transform="translate(85.375 665.75)"><path class="b" d="M-2600.141,2986.235c12.34-11.008,63.694-7.877,70.456-2.9,8.221,6.058,2.13,27.44-8.808,34.591s-43.221,6.585-52.883-3.072S-2602.814,2988.62-2600.141,2986.235Z" transform="translate(2615.438 -2934.833)"/><path class="c" d="M-2599.852,2990c15.514-16.57,80.073-11.857,88.573-4.361,10.337,9.12,2.678,41.3-11.07,52.069s-54.337,9.912-66.483-4.624S-2603.212,2993.588-2599.852,2990Z" transform="translate(2604.562 -2956.86)"/><path class="d" d="M-2616.728,2969.557c16.592-17.724,85.639-12.681,94.73-4.665,3.953,3.488,6.468,10.816,4.337,17.877-2.1,6.971-11.126,7.237-25.125,9.16-28.207,3.877-73.592,2.143-74.928-7.7C-2618.7,2976.948-2618.256,2971.188-2616.728,2969.557Z" transform="translate(2618.24 -2939.762)"/><g class="e" transform="translate(11.666 55.772)"><path class="f" d="M-2548.205,3162.2a18.122,18.122,0,0,1-8.968-2.251,2.135,2.135,0,0,1-.688-2.941,2.137,2.137,0,0,1,2.941-.687h0a14.043,14.043,0,0,0,6.715,1.609,2.136,2.136,0,0,1,2.135,2.135,2.136,2.136,0,0,1-2.135,2.134Z" transform="translate(2558.183 -3155.418)"/><path class="f" d="M-2433.024,3176.8a18.149,18.149,0,0,1-9.235-.425,2.136,2.136,0,0,1-1.259-2.746,2.136,2.136,0,0,1,2.746-1.257h0a14.046,14.046,0,0,0,6.9.243,2.135,2.135,0,0,1,2.515,1.668,2.136,2.136,0,0,1-1.667,2.517Z" transform="translate(2465.899 -3168.496)"/><path class="f" d="M-2317.078,3175.014a18.151,18.151,0,0,1-9.212.792,2.135,2.135,0,0,1-1.606-2.558,2.134,2.134,0,0,1,2.556-1.606h0a14.071,14.071,0,0,0,6.874-.665,2.133,2.133,0,0,1,2.712,1.323,2.133,2.133,0,0,1-1.323,2.713Z" transform="translate(2372.672 -3167.391)"/><path class="f" d="M-2208.547,3157.023a18.139,18.139,0,0,1-8.982,2.193,2.136,2.136,0,0,1-1.979-2.281,2.136,2.136,0,0,1,2.281-1.98h0a14.053,14.053,0,0,0,6.69-1.71,2.136,2.136,0,0,1,2.883.893,2.135,2.135,0,0,1-.893,2.884Z" transform="translate(2285.3 -3152.999)"/><path class="f" d="M-2486.238,3218.6a18.146,18.146,0,0,1-9.174-1.152,2.135,2.135,0,0,1-1.037-2.836,2.136,2.136,0,0,1,2.837-1.036h0a14.061,14.061,0,0,0,6.86.787,2.134,2.134,0,0,1,2.376,1.861,2.135,2.135,0,0,1-1.861,2.377Z" transform="translate(2508.601 -3201.648)"/><path class="f" d="M-2370.75,3228.6a18.137,18.137,0,0,1-9.245.065,2.137,2.137,0,0,1-1.4-2.677,2.135,2.135,0,0,1,2.677-1.4h0a14.059,14.059,0,0,0,6.9-.121,2.133,2.133,0,0,1,2.6,1.532,2.135,2.135,0,0,1-1.533,2.6Z" transform="translate(2415.814 -3210.528)"/><path class="f" d="M-2261.538,3219.153a18.126,18.126,0,0,1-9.126,1.478,2.136,2.136,0,0,1-1.794-2.431,2.136,2.136,0,0,1,2.43-1.793h0a14.061,14.061,0,0,0,6.8-1.177,2.133,2.133,0,0,1,2.8,1.117,2.134,2.134,0,0,1-1.117,2.8Z" transform="translate(2327.979 -3203.003)"/><path class="f" d="M-2311.148,3261.941a18.137,18.137,0,0,1-9.128,1.478,2.134,2.134,0,0,1-1.792-2.431,2.133,2.133,0,0,1,2.429-1.792h0a14.035,14.035,0,0,0,6.8-1.178,2.134,2.134,0,0,1,2.8,1.118,2.131,2.131,0,0,1-1.115,2.8Z" transform="translate(2367.952 -3237.479)"/><path class="f" d="M-2438.152,3260.758a2.134,2.134,0,0,1-1.117-2.8,2.135,2.135,0,0,1,2.8-1.117,14.032,14.032,0,0,0,6.8,1.177h0a2.133,2.133,0,0,1,2.429,1.794,2.134,2.134,0,0,1-1.792,2.43,18.15,18.15,0,0,1-9.126-1.479Z" transform="translate(2462.51 -3236.526)"/></g><g transform="translate(10.876 54.718)"><path class="d" d="M-2552.275,3156.776a18.136,18.136,0,0,1-8.966-2.249,2.136,2.136,0,0,1-.688-2.942,2.135,2.135,0,0,1,2.941-.687h0a14.031,14.031,0,0,0,6.716,1.61,2.135,2.135,0,0,1,2.135,2.135,2.135,2.135,0,0,1-2.135,2.134Z" transform="translate(2562.251 -3149.993)"/><path class="d" d="M-2437.094,3171.371a18.15,18.15,0,0,1-9.236-.425,2.135,2.135,0,0,1-1.257-2.746,2.137,2.137,0,0,1,2.747-1.257h0a14.045,14.045,0,0,0,6.9.243,2.136,2.136,0,0,1,2.516,1.668,2.137,2.137,0,0,1-1.669,2.517Z" transform="translate(2469.968 -3163.072)"/><path class="d" d="M-2321.146,3169.589a18.147,18.147,0,0,1-9.211.793,2.139,2.139,0,0,1-1.608-2.559,2.14,2.14,0,0,1,2.558-1.607h0a14.031,14.031,0,0,0,6.872-.663,2.134,2.134,0,0,1,2.713,1.322,2.135,2.135,0,0,1-1.324,2.714Z" transform="translate(2376.74 -3161.967)"/><path class="d" d="M-2212.614,3151.6a18.146,18.146,0,0,1-8.982,2.193,2.137,2.137,0,0,1-1.98-2.281,2.137,2.137,0,0,1,2.281-1.98h0a14.035,14.035,0,0,0,6.691-1.709,2.135,2.135,0,0,1,2.884.892,2.136,2.136,0,0,1-.893,2.884Z" transform="translate(2289.368 -3147.575)"/><path class="d" d="M-2490.305,3213.177a18.167,18.167,0,0,1-9.174-1.152,2.136,2.136,0,0,1-1.037-2.837,2.136,2.136,0,0,1,2.836-1.037h0a14.059,14.059,0,0,0,6.86.789,2.135,2.135,0,0,1,2.378,1.86,2.136,2.136,0,0,1-1.863,2.377Z" transform="translate(2512.669 -3196.224)"/><path class="d" d="M-2374.82,3223.173a18.133,18.133,0,0,1-9.244.064,2.135,2.135,0,0,1-1.4-2.676,2.136,2.136,0,0,1,2.676-1.4h0a14.02,14.02,0,0,0,6.9-.12,2.136,2.136,0,0,1,2.6,1.533,2.136,2.136,0,0,1-1.532,2.6Z" transform="translate(2419.882 -3205.104)"/><path class="d" d="M-2265.6,3213.729a18.153,18.153,0,0,1-9.128,1.478,2.134,2.134,0,0,1-1.793-2.429,2.137,2.137,0,0,1,2.43-1.795h0a14.026,14.026,0,0,0,6.8-1.176,2.133,2.133,0,0,1,2.8,1.117,2.13,2.13,0,0,1-1.115,2.8Z" transform="translate(2332.046 -3197.578)"/><path class="d" d="M-2315.217,3256.516a18.149,18.149,0,0,1-9.129,1.48,2.136,2.136,0,0,1-1.792-2.433,2.135,2.135,0,0,1,2.429-1.792h0a14.032,14.032,0,0,0,6.8-1.177,2.137,2.137,0,0,1,2.806,1.118,2.134,2.134,0,0,1-1.118,2.8Z" transform="translate(2372.021 -3232.054)"/><path class="d" d="M-2442.22,3255.334a2.134,2.134,0,0,1-1.117-2.8,2.131,2.131,0,0,1,2.8-1.116,14.066,14.066,0,0,0,6.8,1.176h0a2.136,2.136,0,0,1,2.43,1.794,2.135,2.135,0,0,1-1.794,2.43,18.143,18.143,0,0,1-9.127-1.478Z" transform="translate(2466.577 -3231.103)"/></g><path class="g" d="M-2565.258,2996.215c-1.35-4.158,18.875-10.628,36.777-10.686s44.279.4,52.632,5.428-12.363,12.174-46.695,11.331S-2563.542,3001.541-2565.258,2996.215Z" transform="translate(2570.456 -2964.208)"/><g transform="translate(32.17 4.591) rotate(13)"><path class="h" d="M20.781.2C29.212,3,31.65,8.15,37.345,12.94c1.766,2.321-1.571,3.961-2.764,4.945a2.685,2.685,0,0,1-.393.269c-4.8,2.624-10.932,4.594-20.17.943C6.708,16.208.091,7.208,0,4.137-.055,2.288,5.12.887,9.465,1.162,13.888,1.441,18.28-.633,20.781.2Z" transform="translate(0 0)"/><path class="i" d="M0,2.077c.06.086.318-.51.707-1C1.2.459,1.774.281,1.746.17A.756.756,0,0,0,.653.34,3.035,3.035,0,0,0,0,2.077Z" transform="translate(14.031 2.481)"/><path class="i" d="M0,3.362c.131.043.529-.78,1.2-1.592C2.043.742,3.12.112,3.047.018a1.819,1.819,0,0,0-1.7.689A5.028,5.028,0,0,0,0,3.362Z" transform="translate(15.608 1.665)"/><path class="i" d="M1.389,0A15.75,15.75,0,0,0,.962,2.164C.62,3.584-.1,4.638.013,4.725A1.6,1.6,0,0,0,1.275,3.4,6.434,6.434,0,0,0,1.389,0Z" transform="translate(28.89 13.187)"/><path class="i" d="M.6,4.938A15.905,15.905,0,0,0,.585,2.725C.636,1.257,1.133.058,1,0a1.682,1.682,0,0,0-.97,1.59A6.389,6.389,0,0,0,.6,4.938Z" transform="translate(5.808 6.131)"/><path class="i" d="M.028.319C.251,1.779-.009,3.073.126,3.1A1.781,1.781,0,0,0,.773,1.309C.674.152-.163-.393.028.319Z" transform="translate(32.627 12.288)"/><path class="i" d="M.014,4.495C-.1,4.4.5,3.606.935,2.577c.557-1.3.6-2.589.737-2.577A1.726,1.726,0,0,1,1.9,1.866,5.569,5.569,0,0,1,.014,4.495Z" transform="translate(20.436 12.766)"/></g><g transform="translate(15.645 1.952)"><path class="j" d="M-2482.684,2899.552c-5.109-10.175-13.191-11.614-20.223-18-3.212-1.839-3.342,1.879-4.324,3.553a3.362,3.362,0,0,0-.257.542c-2.3,6.5-3.537,14.582,2.78,25.633,5,8.746,17.411,15.584,21.223,15.182,2.293-.243,3.012-7.014,1.824-12.457C-2482.871,2908.47-2481.168,2902.571-2482.684,2899.552Z" transform="translate(2509.356 -2881.055)"/><path class="h" d="M-2412.087,2999.255c-.119-.063.567-.49,1.095-1.063.668-.728.778-1.483.92-1.464a.976.976,0,0,1,0,1.408A3.674,3.674,0,0,1-2412.087,2999.255Z" transform="translate(2434.693 -2971.495)"/><path class="h" d="M-2415.881,2983.722c-.079-.158.861-.8,1.733-1.78,1.1-1.243,1.671-2.709,1.8-2.631a2.316,2.316,0,0,1-.519,2.257A6.078,6.078,0,0,1-2415.881,2983.722Z" transform="translate(2437.6 -2957.875)"/><path class="h" d="M-2490.01,2920.754a19.207,19.207,0,0,1-2.589.9c-1.688.672-2.847,1.764-2.978,1.631a1.972,1.972,0,0,1,1.388-1.817A7.789,7.789,0,0,1-2490.01,2920.754Z" transform="translate(2498.777 -2912.062)"/><path class="h" d="M-2440.241,3052.616a19.3,19.3,0,0,1,2.737-.357c1.8-.311,3.188-1.141,3.284-.986a2.05,2.05,0,0,1-1.774,1.493A7.856,7.856,0,0,1-2440.241,3052.616Z" transform="translate(2456.296 -3014.127)"/><path class="h" d="M-2481.924,2903.9c-1.846-.034-3.395.513-3.451.346a2.161,2.161,0,0,1,2.083-1.118C-2481.843,2903.06-2481.007,2904.025-2481.924,2903.9Z" transform="translate(2490.945 -2898.31)"/><path class="h" d="M-2484.992,2969.528c.135.127,1-.76,2.189-1.486,1.5-.924,3.081-1.193,3.04-1.368a2.119,2.119,0,0,0-2.349.03A6.779,6.779,0,0,0-2484.992,2969.528Z" transform="translate(2490.651 -2947.731)"/></g><g transform="translate(55.728 0) rotate(7)"><path class="i" d="M7.523,12.4C14.877,3.884,22.574,4.537,30.648.16c3.4-.962,2.519,2.654,2.957,4.514a3.446,3.446,0,0,1,.087.586c.336,6.844-.717,14.938-9.4,23.992-6.87,7.164-19.933,10.621-23.272,9.272C-.99,37.711.178,31.006,2.715,26.065,5.3,21.034,5.342,14.924,7.523,12.4Z" transform="translate(0 0)"/><path class="h" d="M1.638,2.942c.123-.03-.383-.614-.706-1.3C.522.774.628.019.494,0A1.02,1.02,0,0,0,.112,1.356C.343,2.027.834,2.37,1.638,2.942Z" transform="translate(7.076 19.403)"/><path class="h" d="M2.379,5.142c.114-.133-.564-.988-1.089-2.152C.625,1.515.5-.04.366,0A2.425,2.425,0,0,0,.23,2.307,5.734,5.734,0,0,0,2.379,5.142Z" transform="translate(7.652 15.585)"/><path class="h" d="M0,0C-.072.159,1.039.676,2.1,1.524,3.449,2.6,4.2,3.941,4.359,3.847a1.962,1.962,0,0,0-.767-2.1A6.949,6.949,0,0,0,0,0Z" transform="translate(26.347 7.468)"/><path class="h" d="M5.087,2.821c.04-.172-1.157-.435-2.379-1.033C1.16,1.033.131-.116,0,.01a1.961,1.961,0,0,0,1.2,1.885A6.943,6.943,0,0,0,5.087,2.821Z" transform="translate(6.67 31.511)"/><path class="h" d="M.32.537C2,.969,3.253,1.886,3.348,1.741A2,2,0,0,0,1.765.137C.474-.3-.543.423.32.537Z" transform="translate(26.635 3.882)"/><path class="h" d="M3.966,4.173c-.156.088-.7-.985-1.581-1.984C1.276.92-.081.263,0,.106A1.892,1.892,0,0,1,2.12.727,6.585,6.585,0,0,1,3.966,4.173Z" transform="translate(21.677 16.701)"/></g><g transform="translate(59.537 12.127) rotate(-3)"><path class="h" d="M15.822,3.611C25.585-1.371,30.211.042,36.8.695S42.483,4.381,42.2,6.22a3.288,3.288,0,0,1-.138.561c-2.209,6.3-6.133,13.216-17.293,18.2C15.935,28.92,2.877,27.242.359,24.8c-1.516-1.471,2-7.092,6.105-10.62C10.643,10.587,12.926,5.089,15.822,3.611Z" transform="translate(0 0)"/><path class="i" d="M.8,3.075C.922,3.092.68,2.38.639,1.643.589.709.961.066.847,0A.994.994,0,0,0,0,1.084,3.323,3.323,0,0,0,.8,3.075Z" transform="translate(12.445 9.949)"/><path class="i" d="M.9,5.379A15.569,15.569,0,0,0,.711,3.038C.653,1.462,1.116.015.976,0a2.362,2.362,0,0,0-.97,2.031A5.582,5.582,0,0,0,.9,5.379Z" transform="translate(14.122 6.669)"/><path class="i" d="M.013,0C-.114.116.7.99,1.348,2.146,2.168,3.609,2.357,5.1,2.531,5.071A1.912,1.912,0,0,0,2.61,2.892,6.768,6.768,0,0,0,.013,0Z" transform="translate(34.609 6.077)"/><path class="i" d="M3.727,4.407c.1-.14-.885-.818-1.768-1.806C.84,1.351.333-.064.17,0A1.911,1.911,0,0,0,.565,2.146,6.764,6.764,0,0,0,3.727,4.407Z" transform="translate(7.861 20.552)"/><path class="i" d="M.231.4C1.586,1.4,2.381,2.692,2.52,2.6A1.948,1.948,0,0,0,1.681.567C.674-.3-.507-.022.231.4Z" transform="translate(36.057 3.15)"/><path class="i" d="M2.095,5.124c-.173.022-.273-1.148-.7-2.371C.862,1.2-.121.11.012,0A1.844,1.844,0,0,1,1.695,1.337,6.414,6.414,0,0,1,2.095,5.124Z" transform="translate(26.967 12.789)"/></g><g transform="matrix(0.996, -0.087, 0.087, 0.996, 4.816, 13.773)"><path class="i" d="M23.024,12.331c5.894,8.53,3.532,15.246,5.569,23.461.072,3.256-2.95,1.634-4.71,1.595a3.184,3.184,0,0,1-.544-.059c-6.183-1.282-13.16-4.094-19.229-13.934C-.692,15.608-.754,3.155,1.222.487c1.19-1.606,6.9.988,10.722,4.394C15.835,8.349,21.275,9.8,23.024,12.331Z" transform="translate(0 0)"/><path class="h" d="M0,1.017c0,.117.636-.2,1.323-.33.869-.163,1.519.1,1.566-.01A.939.939,0,0,0,1.768.022,3.133,3.133,0,0,0,0,1.017Z" transform="translate(13.875 10.076)"/><path class="h" d="M0,1.3A14.728,14.728,0,0,0,2.171.829C3.642.578,5.056.83,5.052.7A2.234,2.234,0,0,0,3.027.042,5.288,5.288,0,0,0,0,1.3Z" transform="translate(15.013 11.338)"/><path class="h" d="M4.44.009C4.316-.1,3.6.776,2.6,1.529,1.327,2.482-.048,2.845,0,3a1.808,1.808,0,0,0,2.052-.2A6.4,6.4,0,0,0,4.44.009Z" transform="translate(18.627 30.259)"/><path class="h" d="M0,3.963c.144.075.656-.932,1.471-1.884C2.5.874,3.766.222,3.684.077A1.808,1.808,0,0,0,1.723.715,6.4,6.4,0,0,0,0,3.963Z" transform="translate(2.478 7.072)"/><path class="h" d="M1.781.247C1.007,1.645-.1,2.551.007,2.669A1.843,1.843,0,0,0,1.8,1.628C2.488.577,2.082-.5,1.781.247Z" transform="translate(23.867 31.265)"/><path class="h" d="M0,2.6c-.042-.159,1.042-.4,2.136-.952C3.525.956,4.425-.1,4.545.008A1.745,1.745,0,0,1,3.5,1.754,6.077,6.077,0,0,1,0,2.6Z" transform="translate(11.27 23.934)"/></g><g transform="matrix(0.999, -0.035, 0.035, 0.999, 37.077, 1.055)"><path class="k" d="M2.716,18.034c-5.4,11.9-.963,19.692-1.649,30.333.64,4.053,4.023,1.364,6.2.922a4.008,4.008,0,0,0,.66-.194c7.38-2.975,15.4-8.024,20.718-21.582,1.838-4.685,1.883-6.817,1.115-11.837.361-2.983.2-7.11-.619-9.1a7.31,7.31,0,0,1-.52-2.478A4.8,4.8,0,0,0,26.549,0c-3.923.753-7,1.45-10.975,6.529-3.764,1.76-5.711,4.637-8.108,6.556C5.311,14.808,3.474,16.364,2.716,18.034Z" transform="translate(0 0)"/><path class="i" d="M2.716,4.5c-5.4,11.9-.963,19.692-1.649,30.333.64,4.052,4.023,1.364,6.2.922a4.008,4.008,0,0,0,.66-.194c7.38-2.975,15.4-8.024,20.718-21.582-3.243,3.736-6.671.753-9.993.932-6.018.323-8.349-1.074-11.339-7.542C5.317,3.057,5.992,1.892,6.908,0,5,1.549,3.408,2.977,2.716,4.5Z" transform="translate(0 13.533)"/><path class="h" d="M0,.018C.131-.139,1.216.781,2.628,1.49c1.785.9,3.571,1.04,3.546,1.248a2.279,2.279,0,0,1-2.589.214A8.063,8.063,0,0,1,0,.018Z" transform="translate(6.68 40.264)"/><path class="h" d="M.469.261C1.741,1.821,3.318,2.7,3.21,2.867A2.322,2.322,0,0,1,.75,1.978C-.335.828-.072-.594.469.261Z" transform="translate(3.291 42.141)"/><path class="h" d="M6.215,2.215c.016-.206-1.381-.263-2.861-.7C1.477.962.124-.149,0,.017A2.2,2.2,0,0,0,1.684,1.946,7.641,7.641,0,0,0,6.215,2.215Z" transform="translate(14.253 30.798)"/><path class="h" d="M6.215,2.215c.016-.206-1.381-.263-2.861-.7C1.477.962.124-.149,0,.017A2.2,2.2,0,0,0,1.684,1.946,7.641,7.641,0,0,0,6.215,2.215Z" transform="matrix(0.755, 0.656, -0.656, 0.755, 3.219, 24.832)"/><path class="h" d="M4.735,2.215c.013-.206-1.052-.263-2.18-.7C1.125.962.095-.149,0,.017A2.1,2.1,0,0,0,1.283,1.946,4.524,4.524,0,0,0,4.735,2.215Z" transform="translate(4.005 30.979) rotate(11)"/><path class="l" d="M2.433,17.482a16.022,16.022,0,0,0,2.245-5.562A16,16,0,0,1,6.7,7.09c.472-.384.352,2.2.035,3.162A55.23,55.23,0,0,0,8.94,0c.744-.021,1.931,5.968.817,11.619.757,2.041-.944,10.362-1.854,10.894-.568.332-2.492-.4-4.648-.82A18.289,18.289,0,0,0,.014,21.6C-.156,20.234,1.263,19.41,2.433,17.482Z" transform="translate(17.087 6.887)"/><path class="l" d="M4.219,0A6.027,6.027,0,0,1,2.927,2.9,16.17,16.17,0,0,1,0,5.646S1.875,2.027,3.047,1.014Z" transform="translate(11.328 7.862)"/><path class="l" d="M3.888.209A8.728,8.728,0,0,0,0,2.613a8.466,8.466,0,0,1,2.529-.924c-.919,1-1.385,1.476-1.385,1.476S2.863,2,4.466.959,4.935-.178,3.888.209Z" transform="translate(21.536 0.799)"/></g><path class="d" d="M-2497.984,3025.781s-9.51,8.4-51.461,7.82-38.82-2.221-41.319-3.883c-3.3-2.2-9.551,8.221,4.927,14.788,7.184,3.256,15.01,2.5,29.74,3.36,14.959.869,29.172-.562,35.534-3.36C-2507.938,3038.949-2496.745,3035.982-2497.984,3025.781Z" transform="translate(2597.142 -2995.663)"/></g></g></svg>