<svg xmlns="http://www.w3.org/2000/svg" width="72" height="72" viewBox="0 0 72 72"><defs><style>.a{fill:#fff;opacity:0;}.b,.d,.k{fill:#3a2d2d;}.b,.j{opacity:0.1;}.b,.d{isolation:isolate;}.c{fill:#733ab5;}.d{opacity:0.3;}.e,.g,.h{fill:#bfbc55;}.f{fill:#d6d66b;}.g{opacity:0.32;}.h{opacity:0.53;}.i{fill:#5e30a0;}.l{fill:#91552c;}</style></defs><g transform="translate(-1525 -3080)"><path class="a" d="M0,0H72V72H0Z" transform="translate(1525 3080)"/><g transform="translate(1532.2 3087.2)"><path class="b" d="M26.352,88.083c.312-3.944,3.408-8.829,9.884-12.032a33.123,33.123,0,0,1,10.524-3.316c6.076-.67,6.561-.122,11.433-.206,5.233-.09,10.615-2.478,13.99,1.07,1.2,1.259,2.541,4.948,3.035,7.53,2.31,12.076,3.384,17.261,2.54,23.117a25.588,25.588,0,0,1-12.168,19.066c-6.307,4.176-13.4,5.085-19.563,4.687-6.552-.423-16.337-3.827-20.174-10.526C19.324,106.075,19.651,92.542,26.352,88.083Z" transform="translate(-20.443 -71.078)"/><path class="c" d="M19.943,82.7c.312-3.944,3.408-8.829,9.885-12.032a33.108,33.108,0,0,1,10.524-3.316c6.075-.67,6.561-.123,11.431-.206,5.233-.09,10.615-2.478,13.99,1.07,1.2,1.259,2.54,4.948,3.034,7.53C71.118,87.818,72.191,93,71.347,98.86a25.588,25.588,0,0,1-12.168,19.066c-6.307,4.176-13.4,5.085-19.563,4.687-6.552-.423-16.337-3.827-20.173-10.527C12.911,100.686,13.24,87.155,19.943,82.7Z" transform="translate(-14.725 -66.273)"/><path class="d" d="M42.665,131.564a3.3,3.3,0,0,0,1.549-2c1.469-6.778,7.361-9.792,18.815-10.691,12.213-.953,20.554,4.638,23.645,13.4,3.579,3.938,4.3,11.721,2.318,20.063-1.656,6.969-6.54,10.607-11.852,13.306-6.463,3.283-15.49,3.593-21.62,1.912-8.183-2.243-12.711-7.075-15-13.47C37.221,144.863,37.6,134.824,42.665,131.564Z" transform="translate(-35.826 -113.097)"/><path class="e" d="M36.378,126.7a3.3,3.3,0,0,0,1.549-2c1.469-6.778,7.361-9.792,18.815-10.691,12.213-.953,20.554,4.638,23.645,13.4,3.579,3.938,4.3,11.72,2.318,20.063-1.656,6.969-6.54,10.608-11.852,13.306-6.463,3.283-15.49,3.593-21.62,1.912-8.184-2.244-12.711-7.076-15-13.47C30.934,140,31.313,129.957,36.378,126.7Z" transform="translate(-30.219 -108.755)"/><path class="f" d="M56.815,156.329a9.24,9.24,0,0,0,3.151-4.573c1.3-5.856,5.982-6.48,14.328-6.612A23.676,23.676,0,0,1,94.88,156.488c2.407,3.923,3.838,10.092,2.213,17.326-1.36,6.043-5.481,7.7-10.046,10.089-5.554,2.907-10.872,5.309-18.741,3.418A17.436,17.436,0,0,1,55.2,175.827C52.245,167.884,52.469,159.2,56.815,156.329Z" transform="translate(-49.063 -136.614)"/><path class="g" d="M232.02,265.168c1.268-.454,5.163-.234,5.527.844.255,1.528-1.761,1.21-4.409,1.333-.754.035-2.431.575-3.18-.189-.78-.8-.317-1.274.25-1.536C230.29,265.583,231.931,265.2,232.02,265.168Z" transform="translate(-206.321 -243.466)"/><path class="h" d="M232.02,296.4c1.268-.454,5.163-.234,5.527.844.255,1.528-1.761,1.21-4.409,1.333-.754.035-2.431.575-3.18-.189-.78-.8-.317-1.274.25-1.536C230.29,296.817,231.931,296.433,232.02,296.4Z" transform="translate(-206.321 -271.323)"/><path class="i" d="M376.406,93.824c-.05.264,1.709.632,3.519,1.512,2.292,1.114,3.841,2.843,4.023,2.655a3.056,3.056,0,0,0-1.838-2.867C379.5,93.787,376.466,93.511,376.406,93.824Z" transform="translate(-337.303 -90.741)"/><path class="i" d="M470.767,169.857c-.174.147.027.709,1.091,2,1.28,1.548,1.574,2.939,1.772,2.854a3.811,3.811,0,0,0-.234-2.49C472.515,170.8,470.954,169.7,470.767,169.857Z" transform="translate(-421.413 -158.645)"/><g class="j" transform="translate(19.035 19.624)"><path class="k" d="M287.971,249.8l-.024-.012a1.127,1.127,0,0,1-.524-1.479,1.434,1.434,0,0,1,1.176-.424c1.784.195,5.652-.647,5.938.619a.99.99,0,0,1-.777,1.332A36.505,36.505,0,0,1,287.971,249.8Z" transform="translate(-276.884 -247.789)"/><path class="k" d="M195.574,249.836a.99.99,0,0,1-.777-1.332c.286-1.266,4.154-.424,5.938-.619a1.434,1.434,0,0,1,1.176.424,1.127,1.127,0,0,1-.524,1.479l-.024.012A36.5,36.5,0,0,1,195.574,249.836Z" transform="translate(-194.305 -247.789)"/><path class="k" d="M196.786,312.3c-.1,1.15-1.1,1.661-2.807,1.791-1.366.1-3.272-1.137-3.185-1.94.044-.39,1.759-.2,3.195-.138C195.519,312.078,196.774,311.724,196.786,312.3Z" transform="translate(-190.791 -304.981)"/><path class="k" d="M289.113,313.722c1.435-.06,3.148-.492,3.191-.1.087.8-2.858,1.35-3.683,1.35-.281,0-2.124-.323-2.31-1.2C286.324,313.191,287.583,313.786,289.113,313.722Z" transform="translate(-275.985 -306.359)"/></g><g transform="translate(18.711 19.192)"><path class="k" d="M284.971,245.8l-.024-.012a1.127,1.127,0,0,1-.524-1.479,1.434,1.434,0,0,1,1.176-.424c1.784.195,5.652-.647,5.938.619a.99.99,0,0,1-.777,1.332A36.491,36.491,0,0,1,284.971,245.8Z" transform="translate(-273.884 -243.789)"/><path class="k" d="M192.574,245.836a.99.99,0,0,1-.777-1.332c.286-1.266,4.154-.424,5.938-.619a1.434,1.434,0,0,1,1.176.424,1.127,1.127,0,0,1-.524,1.479l-.024.012A36.49,36.49,0,0,1,192.574,245.836Z" transform="translate(-191.305 -243.789)"/><path class="k" d="M193.786,308.3c-.1,1.15-1.1,1.661-2.807,1.791-1.366.1-3.272-1.137-3.185-1.94.043-.39,1.759-.2,3.195-.138C192.519,308.079,193.774,307.724,193.786,308.3Z" transform="translate(-187.791 -300.982)"/><path class="k" d="M286.113,309.722c1.436-.06,3.148-.492,3.191-.1.087.8-2.858,1.35-3.683,1.35-.281,0-2.124-.323-2.31-1.2C283.324,309.191,284.583,309.786,286.113,309.722Z" transform="translate(-272.985 -302.359)"/></g><path class="l" d="M223.921,370.129c.545-.707,1-.05,3.194-.021s2.589-.885,3.63.021,1.685,3.645-1.751,3.274c-2.9-.314-4.045.175-5.073-.027S223.141,371.141,223.921,370.129Z" transform="translate(-200.697 -336.92)"/><g class="j" transform="translate(22.543 32.807)"><path class="k" d="M224.364,370.609c.545-.707,1-.05,3.194-.021,2.139.028,2.568-.837,3.55-.046a2.219,2.219,0,0,0-.362-.413c-1.041-.906-1.433.008-3.63-.021s-2.649-.686-3.194.021c-.746.967-1,2.864-.129,3.208A3.281,3.281,0,0,1,224.364,370.609Z" transform="translate(-223.24 -369.727)"/></g><path class="e" d="M205.521,338.658c.675-.533,1.424-.641.336.282a14.6,14.6,0,0,0-1.5,1.93c-.759,1.06-1.278,2.343-1.5,2.233C202.5,342.921,203.444,340.3,205.521,338.658Z" transform="translate(-182.453 -308.846)"/><path class="e" d="M285.206,338.658c-.675-.533-1.424-.641-.336.282a14.571,14.571,0,0,1,1.5,1.93c.759,1.06,1.278,2.343,1.5,2.233C288.23,342.921,287.283,340.3,285.206,338.658Z" transform="translate(-255.173 -308.846)"/><path class="e" d="M250.46,415.367c.206-.365,2.312-.385,2.49,0s-.8,1.275-1.245,1.127S250.075,416.049,250.46,415.367Z" transform="translate(-224.906 -377.374)"/></g></g></svg>