<svg xmlns="http://www.w3.org/2000/svg" width="72" height="72" viewBox="0 0 72 72"><defs><style>.a{fill:#fff;opacity:0;}.b,.d,.i{fill:#3a2d2d;}.b{opacity:0.1;}.b,.d{isolation:isolate;}.c{fill:#733ab5;}.d{opacity:0.3;}.e{fill:#ffc307;}.f{fill:#ffdd0d;}.g{fill:#f8bc01;}.h{opacity:0.2;}.j{fill:#5e30a0;}</style></defs><g transform="translate(-130 -763)"><rect class="a" width="72" height="72" transform="translate(130 763)"/><g transform="translate(137.2 770.496)"><path class="b" d="M41.2,1463.253c.312-3.945,3.408-8.829,9.884-12.032a33.125,33.125,0,0,1,10.524-3.316c6.076-.67,6.561-.122,11.433-.206,5.233-.09,10.615-2.478,13.99,1.07,1.2,1.259,2.541,4.948,3.035,7.53,2.31,12.076,3.384,17.26,2.54,23.117a25.588,25.588,0,0,1-12.168,19.066c-6.306,4.176-13.4,5.085-19.563,4.687-6.552-.424-16.337-3.827-20.174-10.526C34.173,1481.245,34.5,1467.711,41.2,1463.253Z" transform="translate(-35.292 -1446.247)"/><path class="c" d="M34.791,1457.866c.312-3.944,3.408-8.829,9.885-12.032a33.1,33.1,0,0,1,10.524-3.316c6.075-.671,6.561-.123,11.431-.206,5.233-.09,10.615-2.479,13.99,1.069,1.2,1.26,2.54,4.948,3.034,7.53,2.31,12.076,3.384,17.262,2.54,23.118A25.588,25.588,0,0,1,74.028,1493.1c-6.307,4.176-13.4,5.084-19.563,4.686-6.552-.424-16.337-3.827-20.173-10.527C27.759,1475.855,28.088,1462.324,34.791,1457.866Z" transform="translate(-29.573 -1441.443)"/><path class="d" d="M57.514,1506.734a3.3,3.3,0,0,0,1.549-2c1.469-6.778,7.361-9.792,18.815-10.691,12.213-.953,20.554,4.638,23.645,13.4,3.579,3.938,4.3,11.721,2.318,20.063-1.656,6.969-6.54,10.607-11.852,13.306-6.463,3.284-15.49,3.593-21.62,1.912-8.183-2.244-12.711-7.075-15-13.47C52.07,1520.033,52.448,1509.994,57.514,1506.734Z" transform="translate(-50.675 -1488.267)"/><path class="e" d="M51.227,1501.866a3.3,3.3,0,0,0,1.549-2c1.469-6.778,7.361-9.792,18.815-10.691,12.213-.953,20.554,4.638,23.645,13.4,3.579,3.938,4.3,11.72,2.318,20.063-1.656,6.969-6.541,10.608-11.852,13.305-6.463,3.284-15.49,3.593-21.62,1.912-8.183-2.244-12.711-7.076-15-13.47C45.783,1515.166,46.161,1505.127,51.227,1501.866Z" transform="translate(-45.068 -1483.925)"/><path class="f" d="M71.664,1531.5a9.242,9.242,0,0,0,3.151-4.573c1.3-5.856,5.982-6.48,14.328-6.613a23.677,23.677,0,0,1,20.586,11.344c2.407,3.922,3.838,10.092,2.213,17.326-1.36,6.043-5.481,7.7-10.046,10.089-5.554,2.906-10.872,5.309-18.741,3.418A17.436,17.436,0,0,1,70.044,1551C67.094,1543.053,67.318,1534.373,71.664,1531.5Z" transform="translate(-63.912 -1511.783)"/><g transform="translate(12.966 29.601)"><path class="g" d="M333.577,1718.793c1.268-.454,5.163-.234,5.527.845.384,1.142-.356,1.984-2.628,2.395-1.368.247-3.509.124-4.409-.714-.976-.819-1.542-1.5-.3-2.073C331.847,1719.209,333.488,1718.825,333.577,1718.793Z" transform="translate(-311.427 -1718.211)"/><path class="g" d="M152.028,1715.463c1.269-.454,5.164-.23,5.527.844.384,1.142-.356,1.984-2.628,2.394-1.368.248-3.509.124-4.409-.714-.976-.82-1.542-1.5-.3-2.073C150.3,1715.878,151.94,1715.494,152.028,1715.463Z" transform="translate(-149.506 -1715.241)"/></g><g class="h" transform="translate(18.057 17.978)"><path class="i" d="M208.492,1611.572a1.091,1.091,0,0,1-1.066-.864c-.044-.164-.288-.781-1.321-.781-1.271,0-1.629.465-1.631.469a1.064,1.064,0,0,1-1.436.441l-.02-.011a1.126,1.126,0,0,1-.441-1.512c.085-.158.9-1.576,3.528-1.576a3.367,3.367,0,0,1,3.456,2.515,1.092,1.092,0,0,1-.841,1.3h0A1.167,1.167,0,0,1,208.492,1611.572Z" transform="translate(-201.812 -1607.733)"/><path class="i" d="M314.94,1611.6a1.591,1.591,0,0,0-1.405-.614,2.5,2.5,0,0,0-1.564.669c-.4.432-.82.821-1.368.614l-.026-.013a1.127,1.127,0,0,1-.623-1.44c.176-.47,1.045-1.625,3.287-1.842,1.987-.2,3.035.384,3.762,1.928a.99.99,0,0,1-.482,1.314,1.014,1.014,0,0,1-.2.068A1.289,1.289,0,0,1,314.94,1611.6Z" transform="translate(-297.633 -1608.803)"/><path class="i" d="M198.737,1760.566c.623,1.075,2.638,3.044,6.967,3.044,4.427,0,7.15-2.027,7.627-2.836a1.137,1.137,0,0,1,1.472-.443c.437.276.72.736.216,1.639-.085.163-2.7,3.824-9.32,3.824-6.741,0-9-4.4-9.05-4.588a1.081,1.081,0,0,1,.7-1.358l.021-.006C198.02,1759.655,198.367,1759.925,198.737,1760.566Z" transform="translate(-196.596 -1743.345)"/><path class="i" d="M220.535,1702.55c0,1.193-1.043,1.245-2.232,1.241s-2.078-.053-2.082-1.241a2.156,2.156,0,0,1,2.151-2.16h0A2.327,2.327,0,0,1,220.535,1702.55Z" transform="translate(-214.1 -1690.373)"/><path class="i" d="M322.877,1702.816c.011,1.152-.838,1.359-2.248,1.35-1.164-.009-1.97-.192-1.967-1.357a2.111,2.111,0,0,1,2.1-2.106,2,2,0,0,1,2.11,1.883A2.261,2.261,0,0,1,322.877,1702.816Z" transform="translate(-305.465 -1690.649)"/></g><g transform="translate(17.509 17.506)"><path class="i" d="M203.4,1607.211a1.092,1.092,0,0,1-1.066-.864c-.044-.163-.288-.78-1.321-.78-1.271,0-1.629.465-1.631.469a1.062,1.062,0,0,1-1.436.441h0l-.02-.011a1.126,1.126,0,0,1-.441-1.512c.085-.158.9-1.576,3.528-1.576a3.368,3.368,0,0,1,3.456,2.515,1.093,1.093,0,0,1-.841,1.3h0A1.178,1.178,0,0,1,203.4,1607.211Z" transform="translate(-196.726 -1603.371)"/><path class="i" d="M309.857,1607.221a1.6,1.6,0,0,0-1.405-.618,2.5,2.5,0,0,0-1.564.669c-.4.432-.82.821-1.368.614l-.025-.01a1.126,1.126,0,0,1-.623-1.44c.176-.47,1.045-1.625,3.287-1.843,1.987-.2,3.035.384,3.762,1.929a.99.99,0,0,1-.484,1.314.978.978,0,0,1-.2.068A1.29,1.29,0,0,1,309.857,1607.221Z" transform="translate(-292.552 -1604.428)"/><path class="i" d="M193.67,1756.194c.623,1.075,2.638,3.043,6.966,3.043,4.427,0,7.151-2.027,7.628-2.836a1.136,1.136,0,0,1,1.471-.443c.436.276.72.735.216,1.638-.085.163-2.7,3.824-9.32,3.824-6.741,0-9-4.4-9.05-4.588a1.08,1.08,0,0,1,.7-1.358l.021-.006C192.95,1755.282,193.294,1755.551,193.67,1756.194Z" transform="translate(-191.528 -1738.973)"/><path class="i" d="M215.461,1698.175c0,1.193-1.043,1.244-2.232,1.241s-2.078-.054-2.082-1.241a2.16,2.16,0,0,1,2.154-2.16h0A2.328,2.328,0,0,1,215.461,1698.175Z" transform="translate(-209.026 -1685.999)"/><path class="i" d="M317.789,1698.437c.011,1.152-.838,1.36-2.248,1.35-1.165-.008-1.97-.192-1.967-1.356a2.11,2.11,0,0,1,2.1-2.1,2,2,0,0,1,2.111,1.882A2.211,2.211,0,0,1,317.789,1698.437Z" transform="translate(-300.379 -1686.274)"/></g><path class="j" d="M391.255,1468.993c-.05.264,1.709.632,3.519,1.511,2.292,1.114,3.841,2.843,4.023,2.655a3.056,3.056,0,0,0-1.838-2.867C394.35,1468.956,391.315,1468.68,391.255,1468.993Z" transform="translate(-352.152 -1465.91)"/><path class="j" d="M485.616,1545.026c-.174.148.027.71,1.091,2,1.28,1.548,1.574,2.938,1.772,2.853a3.808,3.808,0,0,0-.234-2.489C487.364,1545.974,485.8,1544.868,485.616,1545.026Z" transform="translate(-436.262 -1533.814)"/><path class="j" d="M338.143,1469.553c-.022.186.45.374,1.921.442,1.769.083,2.757.637,2.882.5.229-.244-.029-.776-2.146-1.125C339.368,1469.14,338.167,1469.354,338.143,1469.553Z" transform="translate(-304.782 -1466.263)"/></g></g></svg>