<svg xmlns="http://www.w3.org/2000/svg" width="30" height="30" viewBox="0 0 30 30"><defs><style>.a{fill:#fff;opacity:0;}.b{fill:#e35959;}.c{fill:#ffb282;}.d{fill:#dd6b5c;}.e{fill:#c15344;}.f{fill:#aa3828;}</style></defs><g transform="translate(-30 -234)"><rect class="a" width="30" height="30" transform="translate(30 234)"/><g transform="translate(36 237.6)"><path class="b" d="M402.287,1176.291c3.2-.022,6-.64,8.238-4.157,1.644-2.585,1.765-6.917.943-9.421-.674-2.051-2.064-3.466-1.6-5.057a1.909,1.909,0,0,0-2.22,1.218c-.346.986-1.523.148-1.5-1.86.025-2.321-1.977-3.3-3.84-3.607.677,1.568-.211,2.045-2.2,3.862a6.335,6.335,0,0,0-1.7,3.831c-.105,1.063-.913.72-.854-.035a1.793,1.793,0,0,0-.971-1.819c.161,2.127-2.113,3.36-2.494,5.726-.275,1.711,1.1,3.236.78,3.85-.266.511-.536.22-.907-.209a6.479,6.479,0,0,0,1.513,4.836C396.972,1175.492,400.179,1176.306,402.287,1176.291Z" transform="translate(-393.965 -1153.407)"/><path class="c" d="M448.93,1288.38a7.1,7.1,0,0,0,6.313-3.185c1.469-1.95,1.524-5.249,1.156-7.233-.345-1.855-1.439-2.7-1.078-3.913a1.084,1.084,0,0,0-1.266.628c-.324.732-1.962.46-2.167-1.067a3.43,3.43,0,0,0-2.058-3c-.284,1.292-1.049,1.807-2.576,3.2a4.329,4.329,0,0,0-1.126,2.366c-.379,1.213-1.131,1.995-1.512,1.182-.23-.5-.352-.924-.893-1.159.124,1.63-.789,1.7-1.081,3.514-.211,1.312.933,2.327.824,3.108-.1.71-.948.9-1.233.57a3.559,3.559,0,0,0,1.472,2.82A8.4,8.4,0,0,0,448.93,1288.38Z" transform="translate(-440.444 -1266.621)"/><g transform="translate(4.576 10.06)"><path class="d" d="M549.371,1480.72c.739.051.9-.195,1.32-.219a1.372,1.372,0,0,1,1.084.4,3.3,3.3,0,0,1,.522,1.295,12.15,12.15,0,0,1,.437,3.976,4.86,4.86,0,0,1-2.1,3.521,6.117,6.117,0,0,1-3.577.894c-1.127-.072-3.12.405-3.78-.747-1.08-1.886-.31-5.28.484-6.354A6.55,6.55,0,0,1,549.371,1480.72Z" transform="translate(-542.743 -1480.497)"/><path class="e" d="M568.357,1493.688a3.308,3.308,0,0,1,.522,1.295,12.157,12.157,0,0,1,.437,3.976,4.86,4.86,0,0,1-2.1,3.521,6.114,6.114,0,0,1-3.577.894c-1.127-.072-3.12.406-3.78-.746-.232-.405,4.16-.218,6.167-2.233C568.318,1498.1,568.276,1493.6,568.357,1493.688Z" transform="translate(-559.324 -1493.282)"/><path class="f" d="M610.67,1581.84c.036.042.323-.193.7-.37.476-.224.955-.249.948-.3a.63.63,0,0,0-.7-.076A2.008,2.008,0,0,0,610.67,1581.84Z" transform="translate(-608.581 -1577.931)"/><path class="f" d="M750.335,1543.933c-.014.054.344.151.706.354.458.257.757.633.8.6a.631.631,0,0,0-.344-.614A2.01,2.01,0,0,0,750.335,1543.933Z" transform="translate(-743.95 -1541.981)"/><path class="f" d="M734.366,1513.252c-.006.055.36.1.75.249.491.189.84.518.874.476a.631.631,0,0,0-.428-.557A2.008,2.008,0,0,0,734.366,1513.252Z" transform="translate(-728.472 -1512.218)"/><path class="f" d="M792.106,1646.474c-.035.043.25.281.5.616.31.425.426.89.477.873a.631.631,0,0,0-.06-.7C792.673,1646.767,792.147,1646.423,792.106,1646.474Z" transform="translate(-784.434 -1641.365)"/></g></g></g></svg>