<svg xmlns="http://www.w3.org/2000/svg" width="72" height="72" viewBox="0 0 72 72"><defs><style>.a{fill:#fff;opacity:0;}.b,.d,.j{fill:#3a2d2d;}.b{opacity:0.1;}.b,.d,.p{isolation:isolate;}.c{fill:#733ab5;}.d,.i,.p{opacity:0.3;}.e{fill:#af59d8;}.f{fill:#9845ba;}.g{fill:#5e30a0;}.h{fill:#8535aa;}.k{fill:#3e1b4c;}.l{fill:#e3b9f9;}.m{fill:#591f75;}.n{fill:#f9d600;}.o{fill:#edeceb;}.q{fill:#a64acc;}.r{fill:#f8bc01;}</style></defs><g transform="translate(-1625 -3080)"><rect class="a" width="72" height="72" transform="translate(1625 3080)"/><g transform="translate(1632.2 3087.2)"><path class="b" d="M1205.805,1427.987c.312-3.945,3.408-8.83,9.884-12.032a33.137,33.137,0,0,1,10.523-3.316c6.076-.67,6.562-.122,11.433-.206,5.233-.09,10.615-2.478,13.99,1.07,1.2,1.259,2.541,4.948,3.035,7.53,2.31,12.076,3.384,17.261,2.54,23.118a25.588,25.588,0,0,1-12.168,19.066c-6.307,4.176-13.4,5.085-19.563,4.687-6.552-.424-16.337-3.827-20.174-10.526C1198.777,1445.979,1199.105,1432.445,1205.805,1427.987Z" transform="translate(-1199.897 -1410.981)"/><path class="c" d="M1199.4,1422.6c.312-3.944,3.408-8.829,9.885-12.032a33.11,33.11,0,0,1,10.523-3.315c6.075-.671,6.561-.123,11.432-.206,5.233-.09,10.615-2.478,13.99,1.07,1.2,1.26,2.541,4.948,3.034,7.53,2.31,12.076,3.384,17.262,2.54,23.118a25.587,25.587,0,0,1-12.168,19.066c-6.306,4.176-13.4,5.085-19.563,4.686-6.552-.423-16.337-3.827-20.173-10.527C1192.365,1440.589,1192.694,1427.058,1199.4,1422.6Z" transform="translate(-1194.179 -1406.177)"/><path class="d" d="M1222.119,1471.469a3.3,3.3,0,0,0,1.549-2c1.469-6.778,7.36-9.792,18.815-10.69,12.213-.953,20.554,4.638,23.645,13.4,3.579,3.938,4.3,11.721,2.319,20.063-1.656,6.969-6.541,10.607-11.852,13.306-6.463,3.284-15.49,3.593-21.62,1.912-8.183-2.244-12.711-7.075-15-13.47C1216.675,1484.767,1217.053,1474.728,1222.119,1471.469Z" transform="translate(-1215.28 -1453.001)"/><path class="e" d="M1215.832,1466.6a3.3,3.3,0,0,0,1.549-2c1.469-6.778,7.361-9.792,18.815-10.69,12.213-.953,20.553,4.638,23.645,13.4,3.58,3.938,4.3,11.72,2.319,20.063-1.656,6.969-6.54,10.608-11.852,13.305-6.463,3.284-15.49,3.593-21.62,1.912-8.183-2.244-12.711-7.075-15-13.47C1210.388,1479.9,1210.766,1469.861,1215.832,1466.6Z" transform="translate(-1209.673 -1448.659)"/><path class="f" d="M1246.663,1497.21c1.64-.949,3.352-4.073,4.151-5.791,2.086-5.624,6.813-5.6,15.1-4.587a23.676,23.676,0,0,1,18.838,14.058c1.847,4.215,2.42,10.522-.182,17.466-2.176,5.8-6.485,6.877-11.334,8.617-5.9,2.118-11.5,3.769-19.032.818a17.438,17.438,0,0,1-11.412-13.181C1240.958,1506.338,1241.964,1499.463,1246.663,1497.21Z" transform="translate(-1236.768 -1477.65)"/><path class="g" d="M1555.861,1433.728c-.051.264,1.709.632,3.518,1.512,2.292,1.114,3.841,2.843,4.023,2.655a3.057,3.057,0,0,0-1.837-2.867C1558.955,1433.69,1555.921,1433.415,1555.861,1433.728Z" transform="translate(-1516.758 -1430.644)"/><path class="g" d="M1650.221,1509.76c-.175.147.027.709,1.091,2,1.281,1.548,1.574,2.938,1.773,2.854a3.814,3.814,0,0,0-.235-2.49C1651.969,1510.708,1650.408,1509.6,1650.221,1509.76Z" transform="translate(-1600.867 -1498.548)"/><path class="h" d="M1385.487,1672.274c1.985-.071,7.383,1.654,7.5,5.777.049,1.69-3.86.15-7.681.168-3.2.015-6.573,2.2-6.905.84C1377.644,1675.952,1383.228,1672.355,1385.487,1672.274Z" transform="translate(-1358.424 -1643.503)"/><path class="g" d="M1502.748,1434.288c-.022.186.451.374,1.921.442,1.769.082,2.757.637,2.882.5.229-.243-.029-.776-2.146-1.124C1503.974,1433.874,1502.772,1434.089,1502.748,1434.288Z" transform="translate(-1469.387 -1430.997)"/><g class="i" transform="translate(19.25 13.936)"><path class="j" d="M1480.51,1538.557l-.022-.016a1.127,1.127,0,0,1-.226-1.552,1.432,1.432,0,0,1,1.236-.186c1.712.538,3.413.282,3.447,1.579a.99.99,0,0,1-.81,1.142.969.969,0,0,1-.212.013A30.442,30.442,0,0,0,1480.51,1538.557Z" transform="translate(-1468.393 -1536.56)"/><path class="j" d="M1387.723,1535.079a1.015,1.015,0,0,1,.211.02.99.99,0,0,1,.767,1.172c-.183.985-1.517.4-3.072,1.411a1.084,1.084,0,0,1-1.229-.232,1.127,1.127,0,0,1,.283-1.543l.023-.016A10.629,10.629,0,0,1,1387.723,1535.079Z" transform="translate(-1382.916 -1535.079)"/><path class="j" d="M1378.229,1652.513a3,3,0,1,1-2.836-3.164h0A3.237,3.237,0,0,1,1378.229,1652.513Z" transform="translate(-1372.232 -1636.991)"/><path class="j" d="M1469.793,1652.4a3,3,0,1,1-2.835-3.164h0A3.236,3.236,0,0,1,1469.793,1652.4Z" transform="translate(-1453.897 -1636.894)"/></g><g transform="translate(18.925 13.504)"><path class="k" d="M1477.51,1534.558l-.022-.017a1.127,1.127,0,0,1-.226-1.552,1.434,1.434,0,0,1,1.237-.187c1.711.538,3.412.282,3.447,1.58a.99.99,0,0,1-.81,1.142.95.95,0,0,1-.212.014A30.385,30.385,0,0,0,1477.51,1534.558Z" transform="translate(-1465.392 -1532.56)"/><path class="k" d="M1384.723,1531.079a1.012,1.012,0,0,1,.211.021.99.99,0,0,1,.767,1.172c-.184.985-1.517.4-3.072,1.41a1.084,1.084,0,0,1-1.229-.231,1.127,1.127,0,0,1,.283-1.544l.022-.015A10.613,10.613,0,0,1,1384.723,1531.079Z" transform="translate(-1379.916 -1531.079)"/><path class="l" d="M1375.229,1648.513a3,3,0,1,1-2.836-3.164h0A3.236,3.236,0,0,1,1375.229,1648.513Z" transform="translate(-1369.232 -1632.991)"/><path class="l" d="M1466.792,1648.4a3,3,0,1,1-2.836-3.164h0A3.236,3.236,0,0,1,1466.792,1648.4Z" transform="translate(-1450.896 -1632.894)"/></g><path class="f" d="M1475.609,1658.259a1.79,1.79,0,1,1-1.23-2.217h0A1.93,1.93,0,0,1,1475.609,1658.259Z" transform="translate(-1442.052 -1628.967)"/><path class="f" d="M1383.645,1657.358a1.841,1.841,0,1,1-1.845-1.841h0A1.986,1.986,0,0,1,1383.645,1657.358Z" transform="translate(-1359.877 -1628.56)"/><path class="m" d="M1407.492,1746.184c4.169,0,5.531,6.159,5.255,7.648-.351,1.9-1.472,4.131-6.071,3.251C1401.972,1756.183,1403.416,1746.184,1407.492,1746.184Z" transform="translate(-1381.082 -1709.425)"/><path class="n" d="M1487.828,1828.754c.618-.146,1.42.165,1.328.7s-1.594.66-1.726.33S1487.385,1828.859,1487.828,1828.754Z" transform="translate(-1455.676 -1783.036)"/><path class="n" d="M1498.681,1811.983a.567.567,0,0,1,.646-.288c.2.048.44.84,0,.792S1498.551,1812.188,1498.681,1811.983Z" transform="translate(-1465.735 -1767.838)"/><path class="o" d="M1443.176,1760.3c-.03.519-.194.738-.714.693s-.729-.169-.729-.693,0-.893.729-.941S1443.2,1759.779,1443.176,1760.3Z" transform="translate(-1414.969 -1721.171)"/><g class="p" transform="translate(22.656 36.759)"><path class="j" d="M1407.822,1747.153c2.339,0,3.794,1.939,4.573,3.9-.653-2.239-2.178-4.872-4.9-4.872-3.08,0-4.657,5.71-3.213,8.888C1403.48,1751.828,1405.035,1747.153,1407.822,1747.153Z" transform="translate(-1403.738 -1746.184)"/></g><path class="q" d="M1403.209,1579.417c.132,1-3.634-.177-6.308-.086-.761.026-5.457.237-5.943-.4C1390.3,1578.074,1403.062,1578.307,1403.209,1579.417Z" transform="translate(-1369.661 -1559.792)"/><path class="q" d="M1410.779,1563.425c.132,1-2.906.1-5.581.081-3.234-.028-4.448.511-4.935-.122C1399.6,1562.522,1410.632,1562.313,1410.779,1563.425Z" transform="translate(-1377.958 -1545.745)"/><g transform="translate(21.598 42.435)"><path class="n" d="M1395.356,1799.819c.237-.639,1.53-1.134,2.38-1.134s.865,1.181,1.07,1.134a3.127,3.127,0,0,1,1.151,0c.377.093-.742,2.833-2.08,3.116s-3.354.575-3.826-.114S1394.865,1801.141,1395.356,1799.819Z" transform="translate(-1393.95 -1798.685)"/><path class="r" d="M1417.907,1804.055c-.19-.074-.562,1.454-.753,1.7s-.5.687-.588.752.485.376,1.015,0,1.391-1.148,1.038-1.391-.675-.141-.735-.214S1418.187,1804.166,1417.907,1804.055Z" transform="translate(-1414.113 -1803.472)"/><path class="r" d="M1396.292,1822.634c.09-.221.2.115.113.43s-.012.98.163.955-.192.226-.706,0S1396.079,1823.16,1396.292,1822.634Z" transform="translate(-1395.496 -1819.982)"/></g></g></g></svg>