<svg xmlns="http://www.w3.org/2000/svg" width="50" height="50" viewBox="0 0 50 50"><defs><style>.a{fill:#fff;opacity:0;}.b{fill:#bc5f70;}.c{fill:#ad5064;}.d{fill:#933a51;}.e{fill:#c16979;}.f{fill:#f9d600;}.g{fill:#f7c903;}</style></defs><g transform="translate(-30 -234)"><rect class="a" width="50" height="50" transform="translate(30 234)"/><g transform="translate(-52.818 66.797)"><g transform="matrix(0.995, -0.105, 0.105, 0.995, 90.724, 183.053)"><path class="b" d="M18.262.023c-3.88.021-10.85,2.284-14.04,7.006s-1.876,4.425-3.038,5.079A2.511,2.511,0,0,0,.008,14.271c.036.063.59,1.76,1.995,1.957,1.485.647,4.634,2.731,8.36,2.566a20.032,20.032,0,0,0,6.762-1.747c.475-.208,7.647-2.884,9.26-4.5,2.664-2.668,1.679-3.206,2.98-4.35C31.115,6.658,31.3,3.054,31.04,2.343,30.068-.32,22.141,0,18.262.023Z"/><path class="c" d="M0,12.026c.054.165.582,1.772,1.987,1.969,1.485.647,4.634,2.732,8.359,2.566a20.032,20.032,0,0,0,6.762-1.747c.474-.208,7.647-2.884,9.26-4.5,2.665-2.668,1.679-3.206,2.981-4.351C31.1,4.425,31.283.821,31.025.111c-.193-.53-.719.946-2.188,2.166-1.112.924-5.465,1.956-7.505,2.6-2.866.9-4.5,3.336-7.619,4.489-3.8,1.408-7.023,3.621-9.864,2.745C1.861,11.5,2.713,13.793,0,12.026Z" transform="translate(0.016 2.232)"/><path class="d" d="M0,.008C-.051.062.519.292,1.037.639c.655.44.965.951,1.055.925.041-.012.275-.414-.256-.786A4.392,4.392,0,0,0,0,.008Z" transform="translate(22.518 3.277)"/><path class="d" d="M.006.007C-.061.077.4.536.77,1.161c.472.791.6,1.62.69,1.6A1.1,1.1,0,0,0,1.473,1.53C.949.609.087-.076.006.007Z" transform="translate(26.863 3.277)"/><path class="d" d="M0,.033C-.023.128.6.3,1.24.65c.8.449,1.328,1.1,1.4,1.04a1.1,1.1,0,0,0-.6-1.072A3.519,3.519,0,0,0,0,.033Z" transform="translate(13.703 3.996)"/><path class="d" d="M.213,1.07a1.8,1.8,0,0,0,1.158.7C1.441,1.731.928,1.293.648.687.427.209.214,0,.124,0,.018.006-.128.378.213,1.07Z" transform="translate(6.688 7.948)"/><path class="d" d="M2.052,2.417c.052-.082-.487-.443-.975-.982C.46.752.175-.037.088,0A1.1,1.1,0,0,0,.317,1.211,3.517,3.517,0,0,0,2.052,2.417Z" transform="translate(6.243 9.501)"/><path class="d" d="M3.078.49A8.942,8.942,0,0,0,1.7.414C.78.32.04-.074,0,.012A1.1,1.1,0,0,0,.98.757,3.517,3.517,0,0,0,3.078.49Z" transform="translate(7.97 15.612)"/></g><g transform="translate(102.413 189.424)"><path class="e" d="M1538.244,945.361c.6-.346-5.794-.471,3.019-.758s11.178,4.683,13.162,4.79,1.417,1.594,1.417,1.772a5.035,5.035,0,0,1-2.126,2.941c-1.311,1.1-3.849,4.116-7.747,5.143a23.189,23.189,0,0,1-7.567.468C1536.909,959.586,1537.187,945.969,1538.244,945.361Z" transform="translate(-1533.607 -944.592)"/><path class="c" d="M1558.633,996.6c1.984.106,1.739.511,1.739.688a5.034,5.034,0,0,1-2.126,2.941c-1.311,1.1-3.849,4.116-7.748,5.143a23.2,23.2,0,0,1-7.567.468c-.736-1.084-1.12.274,1.343-2.941.882-1.151,5.027-1.485,6.758-2.057,2.04-.674,3.559-.625,5.058-1.508C1556.908,998.85,1558.181,996.572,1558.633,996.6Z" transform="translate(-1538.136 -990.71)"/><path class="f" d="M1506.285,946.1c.9-.7,1.739-.053,2.716,0s.054.687,2.825,2.537,1.956,8.14-.38,8.775-1.467,2.8-4.4,2.907-4.509-2.062-5.161-5.392,1.413-5.5,2.391-7.083S1505.471,946.729,1506.285,946.1Z" transform="translate(-1501.76 -945.188)"/><path class="g" d="M1526.842,1016.523c-.127,1.632-.8,3.133-1.789,3.408-1.985.55-1.247,2.428-3.739,2.52a3.4,3.4,0,0,1-3.524-2.1c-.487-1.209.778-.786,2.059-1.41,1.069-.521,1.248-2.373,2.462-2.836C1524.146,1015.4,1526.865,1016.225,1526.842,1016.523Z" transform="translate(-1516.022 -1007.937)"/><path class="g" d="M1516.924,956.518c.391-.17,1.254.432,1.6,1.34s-.432,2.68-1.3,2.853-2.291,1.772-2.723,1.513-.865-1.008.216-2.3S1515.628,957.08,1516.924,956.518Z" transform="translate(-1512.761 -954.789)"/><path class="d" d="M1602.849,958.843c-.051.082.492.435.985.965.625.672.921,1.455,1.007,1.415a1.1,1.1,0,0,0-.245-1.2A3.505,3.505,0,0,0,1602.849,958.843Z" transform="translate(-1592.3 -956.886)"/><path class="d" d="M1649.143,1017.467a8.938,8.938,0,0,0-.214,1.363c-.185.9-.651,1.594-.568,1.641a1.1,1.1,0,0,0,.837-.9A3.507,3.507,0,0,0,1649.143,1017.467Z" transform="translate(-1633.058 -1009.405)"/><path class="d" d="M1665,1004.964a8.841,8.841,0,0,0-.017,1.38c-.054.916-.415,1.671-.327,1.705a1.1,1.1,0,0,0,.7-1.008A3.508,3.508,0,0,0,1665,1004.964Z" transform="translate(-1647.65 -998.206)"/><path class="d" d="M1595.295,1054.039c-.091-.035-.334.565-.761,1.151-.542.741-1.254,1.179-1.2,1.256a1.1,1.1,0,0,0,1.134-.468A3.507,3.507,0,0,0,1595.295,1054.039Z" transform="translate(-1583.778 -1042.16)"/></g></g></g></svg>