<svg xmlns="http://www.w3.org/2000/svg" width="72" height="72" viewBox="0 0 72 72"><defs><style>.a{fill:#fff;opacity:0;}.b,.d,.i{fill:#3a2d2d;}.b,.h{opacity:0.1;}.b,.d{isolation:isolate;}.c{fill:#733ab5;}.d{opacity:0.3;}.e{fill:#ffeb94;}.f{fill:#fff0b4;}.g{fill:#5e30a0;}.j{fill:#d84a2e;}.k{fill:#f6e38f;}.l{fill:#fff5d4;}</style></defs><g transform="translate(-330 -763)"><rect class="a" width="72" height="72" transform="translate(330 763)"/><g transform="translate(337.2 770.2)"><path class="b" d="M563.542,88.083c.312-3.944,3.408-8.829,9.884-12.032a33.121,33.121,0,0,1,10.523-3.316c6.076-.67,6.562-.122,11.433-.206,5.233-.09,10.615-2.478,13.989,1.07,1.2,1.259,2.541,4.948,3.035,7.53,2.31,12.076,3.384,17.261,2.54,23.117a25.588,25.588,0,0,1-12.168,19.066c-6.307,4.176-13.4,5.085-19.563,4.687-6.552-.423-16.337-3.827-20.174-10.526C556.514,106.075,556.841,92.541,563.542,88.083Z" transform="translate(-557.633 -71.078)"/><path class="c" d="M557.133,82.7c.312-3.944,3.408-8.829,9.885-12.032a33.109,33.109,0,0,1,10.524-3.316c6.075-.67,6.561-.123,11.431-.206,5.233-.09,10.615-2.478,13.99,1.07,1.2,1.259,2.54,4.948,3.034,7.53,2.311,12.077,3.384,17.262,2.54,23.118a25.588,25.588,0,0,1-12.168,19.066c-6.307,4.176-13.4,5.085-19.563,4.687-6.552-.423-16.337-3.827-20.173-10.527C550.1,100.686,550.429,87.155,557.133,82.7Z" transform="translate(-551.914 -66.273)"/><path class="d" d="M579.855,131.564a3.3,3.3,0,0,0,1.549-2c1.469-6.778,7.361-9.792,18.815-10.691,12.213-.953,20.554,4.638,23.645,13.4,3.579,3.938,4.3,11.721,2.318,20.063-1.656,6.969-6.54,10.607-11.852,13.306-6.463,3.283-15.49,3.593-21.62,1.912-8.184-2.243-12.711-7.075-15-13.47C574.411,144.863,574.789,134.824,579.855,131.564Z" transform="translate(-573.016 -113.097)"/><path class="e" d="M573.568,126.7a3.3,3.3,0,0,0,1.549-2c1.469-6.778,7.361-9.792,18.815-10.691,12.213-.953,20.554,4.638,23.645,13.4,3.579,3.938,4.3,11.72,2.318,20.063-1.656,6.969-6.54,10.608-11.852,13.306-6.463,3.283-15.49,3.593-21.62,1.912-8.183-2.244-12.711-7.076-15-13.47C568.124,140,568.5,129.957,573.568,126.7Z" transform="translate(-567.409 -108.755)"/><path class="f" d="M594,156.329a9.239,9.239,0,0,0,3.151-4.573c1.3-5.856,5.982-6.48,14.328-6.612a23.677,23.677,0,0,1,20.586,11.344c2.407,3.923,3.838,10.092,2.212,17.326-1.36,6.043-5.481,7.7-10.046,10.089-5.554,2.907-10.872,5.309-18.741,3.418a17.436,17.436,0,0,1-13.11-11.493C589.435,167.884,589.658,159.2,594,156.329Z" transform="translate(-586.252 -136.614)"/><path class="g" d="M913.6,93.824c-.05.264,1.709.632,3.519,1.512,2.292,1.114,3.841,2.843,4.023,2.655a3.056,3.056,0,0,0-1.838-2.867C916.691,93.787,913.656,93.511,913.6,93.824Z" transform="translate(-874.493 -90.741)"/><path class="g" d="M1007.956,169.857c-.174.147.027.709,1.091,2,1.28,1.548,1.574,2.939,1.773,2.854a3.812,3.812,0,0,0-.234-2.49C1009.7,170.8,1008.143,169.7,1007.956,169.857Z" transform="translate(-958.603 -158.645)"/><g class="h" transform="translate(15.975 17.637)"><path class="i" d="M846.438,230.869a1.223,1.223,0,0,1,.223,1.854,1.434,1.434,0,0,1-1.249.062,14.029,14.029,0,0,0-3.982-1.117c-.942-.113-1.557-.669-1.518-1.207a.99.99,0,0,1,1.132-1.048A15.478,15.478,0,0,1,846.438,230.869Z" transform="translate(-824.75 -229.404)"/><path class="i" d="M705.49,229.423a.99.99,0,0,1,1.183.99c.066.535-.521,1.121-1.456,1.281a14.023,14.023,0,0,0-3.921,1.315,1.433,1.433,0,0,1-1.25,0,1.223,1.223,0,0,1,.13-1.863A15.481,15.481,0,0,1,705.49,229.423Z" transform="translate(-699.678 -229.404)"/><path class="i" d="M734.976,310.34c-.1,1.15-.752,1.8-2.807,1.791-1.371,0-3.272-1.137-3.185-1.94.043-.39,1.759-.522,3.195-.462C733.708,309.792,734.976,309.952,734.976,310.34Z" transform="translate(-725.813 -301.032)"/><path class="i" d="M833.649,310.34c-.1,1.15-1.409,1.8-3.465,1.791-1.37,0-2.614-1.137-2.528-1.94.044-.39,1.759-.522,3.194-.462C832.382,309.792,833.649,309.952,833.649,310.34Z" transform="translate(-813.817 -301.032)"/></g><g transform="translate(15.543 17.204)"><path class="i" d="M842.438,226.869a1.223,1.223,0,0,1,.223,1.854,1.434,1.434,0,0,1-1.249.062,14.03,14.03,0,0,0-3.982-1.116c-.942-.113-1.558-.669-1.518-1.207a.99.99,0,0,1,1.132-1.048A15.477,15.477,0,0,1,842.438,226.869Z" transform="translate(-820.75 -225.404)"/><path class="i" d="M701.49,225.423a.99.99,0,0,1,1.183.99c.066.535-.52,1.121-1.456,1.281a14.017,14.017,0,0,0-3.921,1.315,1.434,1.434,0,0,1-1.25,0,1.223,1.223,0,0,1,.13-1.863A15.481,15.481,0,0,1,701.49,225.423Z" transform="translate(-695.678 -225.404)"/><path class="i" d="M730.976,306.34c-.1,1.15-.752,1.8-2.807,1.791-1.37,0-3.271-1.137-3.185-1.94.044-.39,1.759-.522,3.195-.462C729.708,305.792,730.976,305.952,730.976,306.34Z" transform="translate(-721.813 -297.032)"/><path class="i" d="M829.649,306.34c-.1,1.15-1.409,1.8-3.465,1.791-1.37,0-2.614-1.137-2.528-1.94.044-.39,1.759-.522,3.194-.462C828.382,305.792,829.649,305.952,829.649,306.34Z" transform="translate(-809.817 -297.032)"/></g><path class="j" d="M734.612,367.568c.545-.707,4.356.371,6.554.4s6.4-.911,7.437-.005-2.123,4.129-7.413,3.758C736.718,371.407,733.831,368.58,734.612,367.568Z" transform="translate(-714.746 -334.78)"/><g class="h" transform="translate(19.739 32.546)"><path class="i" d="M735.147,368.154c.545-.707,4.357.371,6.554.4,2.011.026,5.7-.758,7.107-.2a.565.565,0,0,0-.2-.408c-1.041-.906-5.24.034-7.437.005s-6.008-1.107-6.553-.4c-.319.414-.025,1.131.74,1.856C735.007,368.908,734.917,368.452,735.147,368.154Z" transform="translate(-734.494 -367.315)"/></g><path class="k" d="M780.987,426.228c.322-.365,3.608-.385,3.885,0s-1.249,1.275-1.943,1.127S780.386,426.91,780.987,426.228Z" transform="translate(-756.116 -387.061)"/><path class="k" d="M872.13,327.293c.461-1.075,5.168-1.135,5.565,0s-.957,3.366-2.783,3.317C873.865,330.582,871.268,329.3,872.13,327.293Z" transform="translate(-837.357 -298.334)"/><path class="k" d="M668.993,321.9c.461-1.075,5.168-1.135,5.565,0s-.956,3.366-2.782,3.317C670.728,325.193,668.132,323.912,668.993,321.9Z" transform="translate(-656.182 -293.528)"/><path class="l" d="M892.658,331.9c.206-.365,2.312-.385,2.49,0s-.428,1.143-1.245,1.126C893.435,333.016,892.273,332.581,892.658,331.9Z" transform="translate(-855.751 -302.931)"/><path class="l" d="M692.883,327.508c.206-.365,2.312-.385,2.49,0s-.776,1.115-1.245,1.127C693.436,328.651,692.5,328.19,692.883,327.508Z" transform="translate(-677.563 -299.015)"/></g></g></svg>