<svg xmlns="http://www.w3.org/2000/svg" width="118" height="118" viewBox="0 0 118 118"><defs><style>.a{fill:#fff;opacity:0;}.b,.f{fill:#3a2d2d;}.b{opacity:0.4;}.c{fill:#8d5757;}.d{fill:#ad7575;}.e{opacity:0.3;isolation:isolate;}.g{fill:#4d3030;}.h{fill:#8c5cdd;}.i{fill:#6c27b6;}.j{fill:#7944be;}</style></defs><g transform="translate(-78 -651)"><rect class="a" width="118" height="118" transform="translate(78 651)"/><g transform="translate(85.375 665.345)"><path class="b" d="M-2600.14,2986.236c12.34-11.009,63.694-7.877,70.456-2.9,8.222,6.059,2.13,27.44-8.806,34.592s-43.223,6.585-52.885-3.073S-2602.814,2988.621-2600.14,2986.236Z" transform="translate(2615.438 -2934.428)"/><path class="c" d="M-2599.852,2990c15.513-16.571,80.072-11.857,88.573-4.361,10.337,9.121,2.678,41.3-11.07,52.069s-54.338,9.912-66.483-4.625S-2603.212,2993.588-2599.852,2990Z" transform="translate(2604.562 -2956.454)"/><path class="d" d="M-2616.728,2969.556c16.592-17.724,85.64-12.682,94.732-4.665,3.952,3.488,6.466,10.816,4.335,17.877-2.1,6.97-11.126,7.236-25.124,9.16-28.207,3.877-73.591,2.142-74.928-7.7C-2618.7,2976.947-2618.256,2971.188-2616.728,2969.556Z" transform="translate(2618.24 -2939.355)"/><g class="e" transform="translate(11.666 56.177)"><path class="f" d="M-2548.206,3162.2a18.133,18.133,0,0,1-8.967-2.25,2.136,2.136,0,0,1-.687-2.941,2.136,2.136,0,0,1,2.941-.687h0a14.046,14.046,0,0,0,6.715,1.609,2.135,2.135,0,0,1,2.135,2.134,2.135,2.135,0,0,1-2.135,2.134Z" transform="translate(2558.182 -3155.417)"/><path class="f" d="M-2433.025,3176.8a18.146,18.146,0,0,1-9.236-.424,2.136,2.136,0,0,1-1.258-2.746,2.136,2.136,0,0,1,2.746-1.257h0a14.048,14.048,0,0,0,6.9.243,2.135,2.135,0,0,1,2.516,1.668,2.135,2.135,0,0,1-1.668,2.516Z" transform="translate(2465.9 -3168.497)"/><path class="f" d="M-2317.079,3175.013a18.14,18.14,0,0,1-9.212.792,2.135,2.135,0,0,1-1.606-2.557,2.135,2.135,0,0,1,2.557-1.606h0a14.053,14.053,0,0,0,6.873-.665,2.135,2.135,0,0,1,2.713,1.323,2.135,2.135,0,0,1-1.323,2.713Z" transform="translate(2372.673 -3167.39)"/><path class="f" d="M-2208.546,3157.023a18.139,18.139,0,0,1-8.982,2.193,2.136,2.136,0,0,1-1.979-2.281,2.136,2.136,0,0,1,2.281-1.98h0a14.044,14.044,0,0,0,6.689-1.709,2.135,2.135,0,0,1,2.884.892,2.134,2.134,0,0,1-.892,2.884Z" transform="translate(2285.299 -3152.999)"/><path class="f" d="M-2486.238,3218.6a18.139,18.139,0,0,1-9.174-1.151,2.135,2.135,0,0,1-1.036-2.837,2.135,2.135,0,0,1,2.836-1.036h0a14.055,14.055,0,0,0,6.86.786,2.134,2.134,0,0,1,2.376,1.861,2.134,2.134,0,0,1-1.861,2.377Z" transform="translate(2508.6 -3201.647)"/><path class="f" d="M-2370.75,3228.6a18.144,18.144,0,0,1-9.245.063,2.136,2.136,0,0,1-1.4-2.676,2.136,2.136,0,0,1,2.676-1.4h0a14.042,14.042,0,0,0,6.9-.121,2.135,2.135,0,0,1,2.6,1.533,2.134,2.134,0,0,1-1.533,2.6Z" transform="translate(2415.815 -3210.527)"/><path class="f" d="M-2261.538,3219.153a18.143,18.143,0,0,1-9.127,1.478,2.136,2.136,0,0,1-1.793-2.43,2.135,2.135,0,0,1,2.43-1.793h0a14.042,14.042,0,0,0,6.8-1.177,2.134,2.134,0,0,1,2.8,1.117,2.134,2.134,0,0,1-1.117,2.8Z" transform="translate(2327.979 -3203.002)"/><path class="f" d="M-2311.149,3261.941a18.14,18.14,0,0,1-9.127,1.478,2.135,2.135,0,0,1-1.793-2.43,2.135,2.135,0,0,1,2.43-1.793h0a14.04,14.04,0,0,0,6.8-1.177,2.135,2.135,0,0,1,2.8,1.117,2.134,2.134,0,0,1-1.117,2.8Z" transform="translate(2367.953 -3237.479)"/><path class="f" d="M-2438.152,3260.759a2.134,2.134,0,0,1-1.117-2.8,2.135,2.135,0,0,1,2.8-1.117,14.038,14.038,0,0,0,6.8,1.177h0a2.136,2.136,0,0,1,2.43,1.793,2.135,2.135,0,0,1-1.793,2.43,18.143,18.143,0,0,1-9.127-1.478Z" transform="translate(2462.508 -3236.527)"/></g><g transform="translate(10.876 55.123)"><path class="d" d="M-2552.274,3156.775a18.141,18.141,0,0,1-8.968-2.25,2.135,2.135,0,0,1-.687-2.941,2.136,2.136,0,0,1,2.941-.687h0a14.05,14.05,0,0,0,6.715,1.609,2.135,2.135,0,0,1,2.135,2.134,2.135,2.135,0,0,1-2.135,2.135Z" transform="translate(2562.251 -3149.992)"/><path class="d" d="M-2437.093,3171.37a18.14,18.14,0,0,1-9.235-.424,2.136,2.136,0,0,1-1.258-2.746,2.136,2.136,0,0,1,2.747-1.257h0a14.044,14.044,0,0,0,6.9.243,2.134,2.134,0,0,1,2.516,1.668,2.135,2.135,0,0,1-1.668,2.516Z" transform="translate(2469.968 -3163.072)"/><path class="d" d="M-2321.146,3169.589a18.144,18.144,0,0,1-9.211.792,2.136,2.136,0,0,1-1.607-2.557,2.136,2.136,0,0,1,2.557-1.607h0a14.052,14.052,0,0,0,6.873-.664,2.133,2.133,0,0,1,2.713,1.323,2.135,2.135,0,0,1-1.323,2.713Z" transform="translate(2376.741 -3161.966)"/><path class="d" d="M-2212.614,3151.6a18.141,18.141,0,0,1-8.982,2.193,2.136,2.136,0,0,1-1.979-2.281,2.135,2.135,0,0,1,2.281-1.979h0a14.045,14.045,0,0,0,6.69-1.709,2.134,2.134,0,0,1,2.884.892,2.134,2.134,0,0,1-.893,2.883Z" transform="translate(2289.367 -3147.575)"/><path class="d" d="M-2490.306,3213.175a18.142,18.142,0,0,1-9.174-1.151,2.135,2.135,0,0,1-1.037-2.837,2.136,2.136,0,0,1,2.836-1.037h0a14.048,14.048,0,0,0,6.86.787,2.134,2.134,0,0,1,2.377,1.861,2.135,2.135,0,0,1-1.862,2.376Z" transform="translate(2512.669 -3196.223)"/><path class="d" d="M-2374.819,3223.173a18.132,18.132,0,0,1-9.246.063,2.135,2.135,0,0,1-1.4-2.676,2.135,2.135,0,0,1,2.676-1.4h0a14.033,14.033,0,0,0,6.9-.121,2.135,2.135,0,0,1,2.6,1.534,2.134,2.134,0,0,1-1.533,2.6Z" transform="translate(2419.883 -3205.103)"/><path class="d" d="M-2265.606,3213.728a18.141,18.141,0,0,1-9.127,1.478,2.135,2.135,0,0,1-1.793-2.43,2.135,2.135,0,0,1,2.43-1.793h0a14.04,14.04,0,0,0,6.8-1.177,2.135,2.135,0,0,1,2.8,1.117,2.134,2.134,0,0,1-1.117,2.8Z" transform="translate(2332.047 -3197.577)"/><path class="d" d="M-2315.218,3256.516a18.139,18.139,0,0,1-9.127,1.478,2.135,2.135,0,0,1-1.793-2.43,2.136,2.136,0,0,1,2.43-1.793h0a14.048,14.048,0,0,0,6.8-1.177,2.135,2.135,0,0,1,2.8,1.117,2.134,2.134,0,0,1-1.117,2.8Z" transform="translate(2372.022 -3232.054)"/><path class="d" d="M-2442.22,3255.334a2.135,2.135,0,0,1-1.117-2.8,2.134,2.134,0,0,1,2.8-1.117,14.048,14.048,0,0,0,6.8,1.176h0a2.136,2.136,0,0,1,2.43,1.794,2.135,2.135,0,0,1-1.794,2.429,18.133,18.133,0,0,1-9.126-1.478Z" transform="translate(2466.576 -3231.103)"/></g><path class="g" d="M-2565.259,2996.216c-1.349-4.157,18.876-10.629,36.777-10.687s44.279.4,52.633,5.427-12.361,12.175-46.694,11.332S-2563.541,3001.542-2565.259,2996.216Z" transform="translate(2570.457 -2963.803)"/><g transform="translate(23.972 5.221) rotate(-11)"><path class="h" d="M25.823,17.909C20.878,8.057,13.052,6.664,6.245.483,3.135-1.3,3.008,2.3,2.058,3.923a3.184,3.184,0,0,0-.248.525C-.42,10.743-1.615,18.565,4.5,29.265c4.839,8.468,16.856,15.088,20.546,14.7,2.222-.235,2.918-6.792,1.766-12.06C25.642,26.541,27.291,20.832,25.823,17.909Z" transform="translate(0 0)"/><path class="i" d="M.013,2.447c-.114-.06.55-.473,1.061-1.028.647-.7.752-1.435.89-1.418a.944.944,0,0,1,0,1.364A3.548,3.548,0,0,1,.013,2.447Z" transform="translate(21.874 24.43)"/><path class="i" d="M0,4.275C-.072,4.122.838,3.5,1.682,2.551,2.751,1.348,3.3-.071,3.427,0a2.241,2.241,0,0,1-.5,2.187A5.888,5.888,0,0,1,0,4.275Z" transform="translate(21.022 20.75)"/><path class="i" d="M5.39.041A18.413,18.413,0,0,1,2.883.916C1.249,1.567.126,2.624,0,2.5A1.91,1.91,0,0,1,1.344.735,7.556,7.556,0,0,1,5.39.041Z" transform="translate(3.099 8.375)"/><path class="i" d="M0,1.318A18.861,18.861,0,0,1,2.65.974C4.395.671,5.736-.132,5.829.019A1.983,1.983,0,0,1,4.111,1.464,7.6,7.6,0,0,1,0,1.318Z" transform="translate(15.545 35.945)"/><path class="i" d="M3.34.755C1.553.721.054,1.25,0,1.089A2.088,2.088,0,0,1,2.016.006C3.418-.062,4.229.873,3.34.755Z" transform="translate(5.394 4.661)"/><path class="i" d="M0,3.091c.131.123.972-.735,2.119-1.439C3.573.757,5.1.5,5.062.33A2.055,2.055,0,0,0,2.788.358,6.577,6.577,0,0,0,0,3.091Z" transform="translate(5.48 18.01)"/></g><g transform="translate(55.645 21.307) rotate(-14)"><path class="j" d="M15.318,3.5C24.771-1.327,29.249.041,35.633.672s5.5,3.569,5.219,5.349a3.183,3.183,0,0,1-.133.543c-2.139,6.1-5.937,12.8-16.742,17.619C15.428,28,2.786,26.375.348,24.009c-1.468-1.424,1.938-6.866,5.911-10.282C10.3,10.25,12.514,4.927,15.318,3.5Z" transform="translate(0 0)"/><path class="i" d="M.774,2.977C.892,2.994.658,2.3.619,1.591.57.687.93.064.82,0A.963.963,0,0,0,0,1.049,3.217,3.217,0,0,0,.774,2.977Z" transform="translate(12.049 9.633)"/><path class="i" d="M.875,5.208A15.073,15.073,0,0,0,.688,2.941C.632,1.415,1.081.014.945,0A2.287,2.287,0,0,0,.006,1.967,5.4,5.4,0,0,0,.875,5.208Z" transform="translate(13.673 6.457)"/><path class="i" d="M.013,0C-.11.112.677.958,1.3,2.078,2.1,3.494,2.282,4.937,2.45,4.909A1.851,1.851,0,0,0,2.527,2.8,6.553,6.553,0,0,0,.013,0Z" transform="translate(33.507 5.884)"/><path class="i" d="M3.608,4.267c.1-.136-.857-.792-1.712-1.748C.813,1.308.322-.062.164,0A1.85,1.85,0,0,0,.547,2.078,6.549,6.549,0,0,0,3.608,4.267Z" transform="translate(7.611 19.898)"/><path class="i" d="M.223.385C1.536,1.359,2.3,2.606,2.44,2.513A1.886,1.886,0,0,0,1.627.549C.653-.288-.491-.022.223.385Z" transform="translate(34.909 3.05)"/><path class="i" d="M2.028,4.961c-.167.021-.265-1.111-.675-2.3C.835,1.163-.117.107.012,0A1.785,1.785,0,0,1,1.641,1.294,6.21,6.21,0,0,1,2.028,4.961Z" transform="translate(26.108 12.382)"/></g><g transform="translate(6.385 19.468) rotate(-17)"><path class="i" d="M22.291,11.938C28,20.2,25.71,26.7,27.682,34.652c.07,3.152-2.856,1.582-4.56,1.544a3.082,3.082,0,0,1-.526-.057C16.609,34.9,9.854,32.175,3.979,22.649-.67,15.111-.73,3.054,1.183.472c1.152-1.555,6.681.956,10.38,4.254C15.331,8.083,20.6,9.489,22.291,11.938Z" transform="translate(0 0)"/><path class="h" d="M0,.984C0,1.1.616.791,1.281.665c.842-.158,1.47.1,1.517-.01A.909.909,0,0,0,1.711.022,3.033,3.033,0,0,0,0,.984Z" transform="translate(13.433 9.755)"/><path class="h" d="M0,1.262A14.259,14.259,0,0,0,2.1.8C3.526.559,4.9.8,4.891.675A2.163,2.163,0,0,0,2.93.041,5.119,5.119,0,0,0,0,1.262Z" transform="translate(14.535 10.977)"/><path class="h" d="M4.3.008c-.12-.1-.815.743-1.786,1.472C1.285,2.4-.046,2.754,0,2.909a1.751,1.751,0,0,0,1.987-.192A6.194,6.194,0,0,0,4.3.008Z" transform="translate(18.034 29.295)"/><path class="h" d="M0,3.837c.139.073.635-.9,1.425-1.824C2.424.846,3.646.214,3.567.074a1.751,1.751,0,0,0-1.9.618A6.2,6.2,0,0,0,0,3.837Z" transform="translate(2.399 6.847)"/><path class="h" d="M1.724.239C.975,1.593-.1,2.47.007,2.584A1.784,1.784,0,0,0,1.746,1.576C2.409.559,2.016-.481,1.724.239Z" transform="translate(23.107 30.27)"/><path class="h" d="M0,2.52C-.04,2.366,1.01,2.132,2.069,1.6,3.413.925,4.284-.1,4.4.008A1.689,1.689,0,0,1,3.391,1.7,5.884,5.884,0,0,1,0,2.52Z" transform="translate(10.912 23.172)"/></g><path class="d" d="M-2497.984,3025.781s-9.509,8.4-51.462,7.821-38.818-2.222-41.318-3.885c-3.3-2.2-9.55,8.223,4.928,14.788,7.183,3.257,15.011,2.5,29.738,3.36,14.959.869,29.173-.561,35.535-3.36C-2507.937,3038.949-2496.745,3035.982-2497.984,3025.781Z" transform="translate(2597.143 -2995.256)"/></g></g></svg>