<svg xmlns="http://www.w3.org/2000/svg" width="118" height="118" viewBox="0 0 118 118"><defs><style>.a{fill:#fff;opacity:0;}.b,.f{fill:#3a2d2d;}.b{opacity:0.4;}.c{fill:#8d5757;}.d{fill:#ad7575;}.e{opacity:0.3;isolation:isolate;}.g{fill:#7c4e4e;}.h{fill:#6c4040;}</style></defs><g transform="translate(-78 -651)"><rect class="a" width="118" height="118" transform="translate(78 651)"/><g transform="translate(85.375 683.56)"><path class="b" d="M-2600.14,2986.236c12.34-11.009,63.694-7.877,70.456-2.9,8.222,6.059,2.13,27.44-8.806,34.592s-43.223,6.585-52.885-3.073S-2602.814,2988.621-2600.14,2986.236Z" transform="translate(2615.438 -2952.644)"/><path class="c" d="M-2599.852,2990c15.513-16.571,80.072-11.857,88.573-4.361,10.337,9.121,2.678,41.3-11.07,52.069s-54.338,9.912-66.483-4.625S-2603.212,2993.588-2599.852,2990Z" transform="translate(2604.562 -2974.669)"/><path class="d" d="M-2616.728,2969.556c16.592-17.724,85.64-12.682,94.732-4.665,3.952,3.488,6.466,10.816,4.335,17.877-2.1,6.97-11.126,7.236-25.124,9.16-28.207,3.877-73.591,2.142-74.928-7.7C-2618.7,2976.947-2618.256,2971.188-2616.728,2969.556Z" transform="translate(2618.24 -2957.571)"/><g class="e" transform="translate(11.666 37.962)"><path class="f" d="M-2548.206,3162.2a18.133,18.133,0,0,1-8.967-2.25,2.136,2.136,0,0,1-.687-2.941,2.136,2.136,0,0,1,2.941-.687h0a14.046,14.046,0,0,0,6.715,1.609,2.135,2.135,0,0,1,2.135,2.134,2.135,2.135,0,0,1-2.135,2.134Z" transform="translate(2558.182 -3155.417)"/><path class="f" d="M-2433.025,3176.8a18.146,18.146,0,0,1-9.236-.424,2.136,2.136,0,0,1-1.258-2.746,2.136,2.136,0,0,1,2.746-1.257h0a14.048,14.048,0,0,0,6.9.243,2.135,2.135,0,0,1,2.516,1.668,2.135,2.135,0,0,1-1.668,2.516Z" transform="translate(2465.9 -3168.497)"/><path class="f" d="M-2317.079,3175.013a18.14,18.14,0,0,1-9.212.792,2.135,2.135,0,0,1-1.606-2.557,2.135,2.135,0,0,1,2.557-1.606h0a14.053,14.053,0,0,0,6.873-.665,2.135,2.135,0,0,1,2.713,1.323,2.135,2.135,0,0,1-1.323,2.713Z" transform="translate(2372.673 -3167.39)"/><path class="f" d="M-2208.546,3157.023a18.139,18.139,0,0,1-8.982,2.193,2.136,2.136,0,0,1-1.979-2.281,2.136,2.136,0,0,1,2.281-1.98h0a14.044,14.044,0,0,0,6.689-1.709,2.135,2.135,0,0,1,2.884.892,2.134,2.134,0,0,1-.892,2.884Z" transform="translate(2285.299 -3152.999)"/><path class="f" d="M-2486.238,3218.6a18.139,18.139,0,0,1-9.174-1.151,2.135,2.135,0,0,1-1.036-2.837,2.135,2.135,0,0,1,2.836-1.036h0a14.055,14.055,0,0,0,6.86.786,2.134,2.134,0,0,1,2.376,1.861,2.134,2.134,0,0,1-1.861,2.377Z" transform="translate(2508.6 -3201.647)"/><path class="f" d="M-2370.75,3228.6a18.144,18.144,0,0,1-9.245.063,2.136,2.136,0,0,1-1.4-2.676,2.136,2.136,0,0,1,2.676-1.4h0a14.042,14.042,0,0,0,6.9-.121,2.135,2.135,0,0,1,2.6,1.533,2.134,2.134,0,0,1-1.533,2.6Z" transform="translate(2415.815 -3210.527)"/><path class="f" d="M-2261.538,3219.153a18.143,18.143,0,0,1-9.127,1.478,2.136,2.136,0,0,1-1.793-2.43,2.135,2.135,0,0,1,2.43-1.793h0a14.042,14.042,0,0,0,6.8-1.177,2.134,2.134,0,0,1,2.8,1.117,2.134,2.134,0,0,1-1.117,2.8Z" transform="translate(2327.979 -3203.002)"/><path class="f" d="M-2311.149,3261.941a18.14,18.14,0,0,1-9.127,1.478,2.135,2.135,0,0,1-1.793-2.43,2.135,2.135,0,0,1,2.43-1.793h0a14.04,14.04,0,0,0,6.8-1.177,2.135,2.135,0,0,1,2.8,1.117,2.134,2.134,0,0,1-1.117,2.8Z" transform="translate(2367.953 -3237.479)"/><path class="f" d="M-2438.152,3260.759a2.134,2.134,0,0,1-1.117-2.8,2.135,2.135,0,0,1,2.8-1.117,14.038,14.038,0,0,0,6.8,1.177h0a2.136,2.136,0,0,1,2.43,1.793,2.135,2.135,0,0,1-1.793,2.43,18.143,18.143,0,0,1-9.127-1.478Z" transform="translate(2462.508 -3236.527)"/></g><g transform="translate(10.876 36.908)"><path class="d" d="M-2552.274,3156.775a18.141,18.141,0,0,1-8.968-2.25,2.135,2.135,0,0,1-.687-2.941,2.136,2.136,0,0,1,2.941-.687h0a14.05,14.05,0,0,0,6.715,1.609,2.135,2.135,0,0,1,2.135,2.134,2.135,2.135,0,0,1-2.135,2.135Z" transform="translate(2562.251 -3149.992)"/><path class="d" d="M-2437.093,3171.37a18.14,18.14,0,0,1-9.235-.424,2.136,2.136,0,0,1-1.258-2.746,2.136,2.136,0,0,1,2.747-1.257h0a14.044,14.044,0,0,0,6.9.243,2.134,2.134,0,0,1,2.516,1.668,2.135,2.135,0,0,1-1.668,2.516Z" transform="translate(2469.968 -3163.072)"/><path class="d" d="M-2321.146,3169.589a18.144,18.144,0,0,1-9.211.792,2.136,2.136,0,0,1-1.607-2.557,2.136,2.136,0,0,1,2.557-1.607h0a14.052,14.052,0,0,0,6.873-.664,2.133,2.133,0,0,1,2.713,1.323,2.135,2.135,0,0,1-1.323,2.713Z" transform="translate(2376.741 -3161.966)"/><path class="d" d="M-2212.614,3151.6a18.141,18.141,0,0,1-8.982,2.193,2.136,2.136,0,0,1-1.979-2.281,2.135,2.135,0,0,1,2.281-1.979h0a14.045,14.045,0,0,0,6.69-1.709,2.134,2.134,0,0,1,2.884.892,2.134,2.134,0,0,1-.893,2.883Z" transform="translate(2289.367 -3147.575)"/><path class="d" d="M-2490.306,3213.175a18.142,18.142,0,0,1-9.174-1.151,2.135,2.135,0,0,1-1.037-2.837,2.136,2.136,0,0,1,2.836-1.037h0a14.048,14.048,0,0,0,6.86.787,2.134,2.134,0,0,1,2.377,1.861,2.135,2.135,0,0,1-1.862,2.376Z" transform="translate(2512.669 -3196.223)"/><path class="d" d="M-2374.819,3223.173a18.132,18.132,0,0,1-9.246.063,2.135,2.135,0,0,1-1.4-2.676,2.135,2.135,0,0,1,2.676-1.4h0a14.033,14.033,0,0,0,6.9-.121,2.135,2.135,0,0,1,2.6,1.534,2.134,2.134,0,0,1-1.533,2.6Z" transform="translate(2419.883 -3205.103)"/><path class="d" d="M-2265.606,3213.728a18.141,18.141,0,0,1-9.127,1.478,2.135,2.135,0,0,1-1.793-2.43,2.135,2.135,0,0,1,2.43-1.793h0a14.04,14.04,0,0,0,6.8-1.177,2.135,2.135,0,0,1,2.8,1.117,2.134,2.134,0,0,1-1.117,2.8Z" transform="translate(2332.047 -3197.577)"/><path class="d" d="M-2315.218,3256.516a18.139,18.139,0,0,1-9.127,1.478,2.135,2.135,0,0,1-1.793-2.43,2.136,2.136,0,0,1,2.43-1.793h0a14.048,14.048,0,0,0,6.8-1.177,2.135,2.135,0,0,1,2.8,1.117,2.134,2.134,0,0,1-1.117,2.8Z" transform="translate(2372.022 -3232.054)"/><path class="d" d="M-2442.22,3255.334a2.135,2.135,0,0,1-1.117-2.8,2.134,2.134,0,0,1,2.8-1.117,14.048,14.048,0,0,0,6.8,1.176h0a2.136,2.136,0,0,1,2.43,1.794,2.135,2.135,0,0,1-1.794,2.429,18.133,18.133,0,0,1-9.126-1.478Z" transform="translate(2466.576 -3231.103)"/></g><path class="g" d="M-2565.259,2996.216c-1.349-4.157,18.876-10.629,36.777-10.687s44.279.4,52.633,5.427-12.361,12.175-46.694,11.332S-2563.541,3001.542-2565.259,2996.216Z" transform="translate(2570.457 -2982.018)"/><path class="h" d="M-2565.259,2996.216c-1.349-4.157,18.876-10.629,36.777-10.687s44.279.4,52.633,5.427-12.361,12.175-46.694,11.332S-2563.541,3001.542-2565.259,2996.216Z" transform="translate(2570.344 -2972.422)"/><path class="d" d="M-2497.984,3025.781s-12.189,7.943-51.462,7.821-38.818-2.222-41.318-3.885c-3.3-2.2-9.55,8.223,4.928,14.788,7.183,3.257,15.011,2.5,29.738,3.36,14.959.869,39.3-1.325,45.665-4.125C-2497.807,3038.185-2496.745,3035.982-2497.984,3025.781Z" transform="translate(2597.143 -3013.471)"/></g></g></svg>