<svg xmlns="http://www.w3.org/2000/svg" width="25" height="25" viewBox="0 0 25 25"><defs><style>.a{fill:#fff;opacity:0;}.b{fill:#b24bc4;}.c{fill:#e4d5ff;}.d{fill:#c782eb;}.e{fill:#a143d1;}.f{fill:#770fbe;}</style></defs><g transform="translate(-30 -234)"><rect class="a" width="25" height="25" transform="translate(30 234)"/><g transform="translate(35 236.965)"><path class="b" d="M400.9,1172.477c2.663-.019,5-.533,6.865-3.464a10.559,10.559,0,0,0,.786-7.851c-.562-1.709-1.72-2.888-1.33-4.215a1.591,1.591,0,0,0-1.85,1.015c-.288.822-1.269.123-1.25-1.55.021-1.934-1.648-2.75-3.2-3.006.565,1.307-.175,1.7-1.836,3.218a5.279,5.279,0,0,0-1.415,3.192c-.088.886-.761.6-.712-.029a1.494,1.494,0,0,0-.809-1.516c.135,1.772-1.761,2.8-2.079,4.771-.229,1.426.919,2.7.65,3.208-.222.426-.447.183-.756-.175a5.4,5.4,0,0,0,1.261,4.03C396.471,1171.811,399.143,1172.489,400.9,1172.477Z" transform="translate(-393.965 -1153.407)"/><path class="c" d="M447.932,1285.447a6.78,6.78,0,0,0,5.355-2.447c1.248-1.656,1.295-4.46.982-6.146-.293-1.576-1.222-2.291-.916-3.325a.921.921,0,0,0-1.076.534c-.275.622-1.667.391-1.841-.906a2.914,2.914,0,0,0-1.748-2.552c-.242,1.1-.891,1.535-2.189,2.718a3.679,3.679,0,0,0-.956,2.01c-.322,1.03-.961,1.695-1.284,1-.2-.423-.3-.785-.759-.984.105,1.385-.67,1.443-.918,2.985-.179,1.114.793,1.977.7,2.64-.084.6-.805.764-1.047.485a3.023,3.023,0,0,0,1.251,2.4A7.859,7.859,0,0,0,447.932,1285.447Z" transform="translate(-440.859 -1267.43)"/><g transform="translate(3.643 8.212)"><path class="d" d="M548.491,1480.69c.641.044.777-.169,1.145-.19a1.189,1.189,0,0,1,.94.35,2.867,2.867,0,0,1,.453,1.123,10.538,10.538,0,0,1,.379,3.448,4.215,4.215,0,0,1-1.821,3.053,5.3,5.3,0,0,1-3.1.775c-.977-.063-2.706.352-3.278-.647-.937-1.635-.269-4.579.419-5.51A5.68,5.68,0,0,1,548.491,1480.69Z" transform="translate(-542.743 -1480.496)"/><path class="e" d="M567.227,1493.688a2.867,2.867,0,0,1,.453,1.123,10.542,10.542,0,0,1,.379,3.448,8.44,8.44,0,0,1-.71,1.943,6.955,6.955,0,0,1-1.111,1.11,5.3,5.3,0,0,1-3.1.775c-.977-.063-2.706.352-3.278-.647-.2-.352,3.607-.189,5.348-1.937C567.193,1497.515,567.157,1493.615,567.227,1493.688Z" transform="translate(-559.394 -1493.336)"/><path class="f" d="M610.67,1581.731c.033.037.3-.167.64-.32.436-.194.875-.216.868-.26a.6.6,0,0,0-.64-.066A1.828,1.828,0,0,0,610.67,1581.731Z" transform="translate(-609.185 -1578.341)"/><path class="f" d="M750.335,1543.933c-.013.047.316.131.647.307.42.223.693.548.73.517a.542.542,0,0,0-.315-.532A1.918,1.918,0,0,0,750.335,1543.933Z" transform="translate(-744.913 -1542.24)"/><path class="f" d="M734.366,1513.249a4.772,4.772,0,0,0,.687.216c.45.164.77.449.8.413a.553.553,0,0,0-.392-.483A1.935,1.935,0,0,0,734.366,1513.249Z" transform="translate(-729.394 -1512.352)"/><path class="f" d="M792.106,1646.474c-.032.038.229.244.454.534.284.369.39.772.437.757a.522.522,0,0,0-.055-.607A1.82,1.82,0,0,0,792.106,1646.474Z" transform="translate(-785.504 -1642.042)"/></g></g></g></svg>